<svg width="790" height="1096" viewBox="0 0 790 1096" fill="none" xmlns="http://www.w3.org/2000/svg">
<path d="M0 195H676V1015H0V195Z" fill="#835AFD"/>
<path opacity="0.5" d="M230.574 441.837C257.956 425.856 280.593 440.792 284.598 475.279C285.295 481.244 280.768 489.126 275.239 492.348L185.91 544.514C180.381 547.736 175.854 545.124 176.55 538.331C180.555 499.272 203.236 457.818 230.574 441.837Z" fill="url(#paint0_linear)"/>
<path opacity="0.5" d="M200.058 397.073C200.058 420.892 213.814 432.127 230.792 422.198C247.77 412.27 261.526 384.968 261.526 361.15C261.526 337.331 247.77 326.096 230.792 336.025C213.814 345.953 200.058 373.255 200.058 397.073Z" fill="url(#paint1_linear)"/>
<path opacity="0.07" d="M212.987 427.554C240.369 411.574 263.006 426.509 267.011 460.996C267.708 466.962 263.181 474.843 257.652 478.065L168.323 530.231C162.794 533.454 158.267 530.841 158.963 524.048C162.968 484.989 185.605 443.535 212.987 427.554Z" fill="url(#paint2_linear)"/>
<path opacity="0.07" d="M182.471 382.791C182.471 406.609 196.227 417.844 213.205 407.916C230.183 397.988 243.939 370.685 243.939 346.867C243.939 323.048 230.183 311.814 213.205 321.742C196.227 331.67 182.471 358.972 182.471 382.791Z" fill="url(#paint3_linear)"/>
<path opacity="0.2" d="M123.31 564.651C123.31 563.049 124.164 561.569 125.552 560.768L193.941 521.271C196.93 519.544 200.668 521.702 200.668 525.154V557.708L123.31 602.384V564.651Z" fill="url(#paint4_linear)"/>
<path d="M184.952 539.986C184.952 543.295 186.911 544.862 189.349 543.469C191.787 542.076 193.746 538.244 193.746 534.934C193.746 531.625 191.787 530.057 189.349 531.451C186.911 532.844 184.952 536.676 184.952 539.986Z" fill="#E559F9"/>
<path opacity="0.15" d="M180.86 538.549L157.614 552.004V556.837L180.904 543.382L180.86 538.549Z" fill="#FEFEFE"/>
<path opacity="0.15" d="M180.86 548.259L131.32 576.867V581.788L180.86 553.179V548.259Z" fill="#FEFEFE"/>
<path opacity="0.2" d="M280.463 518.06C280.463 516.457 281.318 514.977 282.706 514.176L351.096 474.717C354.085 472.992 357.821 475.15 357.821 478.601V511.159L280.463 555.835V518.06Z" fill="url(#paint5_linear)"/>
<path d="M342.105 493.393C342.105 496.703 344.064 498.27 346.502 496.877C348.94 495.483 350.899 491.651 350.899 488.342C350.899 485.033 348.94 483.465 346.502 484.859C344.064 486.252 342.105 490.084 342.105 493.393Z" fill="#835AFD"/>
<path opacity="0.15" d="M338.144 492.174L324.126 500.273V505.194L338.144 497.094V492.174Z" fill="#FEFEFE"/>
<path opacity="0.15" d="M338.013 501.884L288.473 530.493V535.413L338.013 506.805V501.884Z" fill="#FEFEFE"/>
<path opacity="0.3" d="M230.614 567.832C230.616 564.378 226.878 562.219 223.887 563.946L86.2835 643.416C84.8972 644.216 84.0428 645.695 84.0419 647.296L83.9999 721.129L217.645 643.969L228.617 647.553C229.582 647.869 230.575 647.149 230.575 646.133L230.614 567.832Z" fill="url(#paint6_linear)"/>
<path d="M200.842 602.863C200.842 609.177 204.542 612.095 209.156 609.439C213.771 606.782 217.471 599.51 217.471 593.24C217.471 586.926 213.771 584.009 209.156 586.665C204.586 589.321 200.842 596.593 200.842 602.863Z" fill="#E559F9"/>
<path opacity="0.15" d="M192.919 600.425L160.792 618.975V625.68L192.919 607.131V600.425Z" fill="#FEFEFE"/>
<path opacity="0.15" d="M192.919 613.88L96.9728 669.268V675.974L192.919 620.586V613.88Z" fill="#FEFEFE"/>
<path opacity="0.15" d="M192.919 627.335L117.912 670.662V677.367L192.919 634.041V627.335Z" fill="#FEFEFE"/>
<path opacity="0.3" d="M250.424 584.593C250.425 582.992 251.28 581.512 252.667 580.712L390.27 501.284C393.26 499.558 396.998 501.717 396.996 505.17L396.956 573.819L263.311 650.979L253.118 666.084C252.293 667.307 250.384 666.722 250.384 665.248L250.424 584.593Z" fill="url(#paint7_linear)"/>
<path d="M280.202 590.41C280.202 596.723 276.458 603.952 271.887 606.608C267.273 609.264 263.572 606.303 263.572 599.989C263.572 593.675 267.316 586.447 271.887 583.791C276.458 581.178 280.202 584.139 280.202 590.41Z" fill="#835AFD"/>
<path opacity="0.15" d="M288.125 578.87L320.252 560.321V567.026L288.125 585.576V578.87Z" fill="#FEFEFE"/>
<path opacity="0.15" d="M288.081 592.282L384.027 536.894V543.6L288.125 598.988L288.081 592.282Z" fill="#FEFEFE"/>
<path opacity="0.15" d="M288.081 605.737L363.088 562.411V569.116L288.081 612.443V605.737Z" fill="#FEFEFE"/>
<path opacity="0.2" d="M335.967 629.599C333.355 631.08 331.266 634.737 331.266 637.786V651.066L322.472 656.118C319.86 657.598 317.771 661.256 317.771 664.26C317.771 667.265 319.86 668.484 322.472 667.004L331.266 661.909V675.19C331.266 678.194 333.355 679.414 335.967 677.933C338.579 676.453 340.669 672.795 340.669 669.79V656.51L349.462 651.458C352.074 649.978 354.164 646.32 354.164 643.316C354.164 640.311 352.074 639.092 349.462 640.572L340.669 645.623V632.343C340.712 629.294 338.579 628.075 335.967 629.599Z" fill="url(#paint8_linear)"/>
<path opacity="0.2" d="M146.818 459.472L134.716 483.247C133.061 486.513 133.322 489.779 135.325 490.563C137.327 491.347 140.288 489.3 141.942 486.034L142.073 485.729V512.117C142.073 515.122 144.162 516.341 146.774 514.86C149.386 513.336 151.476 509.722 151.476 506.718V480.33L151.606 480.46C153.26 481.81 156.264 480.417 158.223 477.325C160.226 474.234 160.487 470.663 158.833 469.313L146.818 459.472Z" fill="url(#paint9_linear)"/>
<path d="M104.412 737.728V742.66H97.716V763H91.56V742.66H84.864V737.728H104.412ZM116.646 763.288C114.678 763.288 112.902 762.868 111.318 762.028C109.758 761.188 108.522 759.988 107.61 758.428C106.722 756.868 106.278 755.044 106.278 752.956C106.278 750.892 106.734 749.08 107.646 747.52C108.558 745.936 109.806 744.724 111.39 743.884C112.974 743.044 114.75 742.624 116.718 742.624C118.686 742.624 120.462 743.044 122.046 743.884C123.63 744.724 124.878 745.936 125.79 747.52C126.702 749.08 127.158 750.892 127.158 752.956C127.158 755.02 126.69 756.844 125.754 758.428C124.842 759.988 123.582 761.188 121.974 762.028C120.39 762.868 118.614 763.288 116.646 763.288ZM116.646 757.96C117.822 757.96 118.818 757.528 119.634 756.664C120.474 755.8 120.894 754.564 120.894 752.956C120.894 751.348 120.486 750.112 119.67 749.248C118.878 748.384 117.894 747.952 116.718 747.952C115.518 747.952 114.522 748.384 113.73 749.248C112.938 750.088 112.542 751.324 112.542 752.956C112.542 754.564 112.926 755.8 113.694 756.664C114.486 757.528 115.47 757.96 116.646 757.96ZM129.199 752.92C129.199 750.856 129.583 749.044 130.351 747.484C131.143 745.924 132.211 744.724 133.555 743.884C134.899 743.044 136.399 742.624 138.055 742.624C139.375 742.624 140.575 742.9 141.655 743.452C142.759 744.004 143.623 744.748 144.247 745.684V736.36H150.403V763H144.247V760.12C143.671 761.08 142.843 761.848 141.763 762.424C140.707 763 139.471 763.288 138.055 763.288C136.399 763.288 134.899 762.868 133.555 762.028C132.211 761.164 131.143 759.952 130.351 758.392C129.583 756.808 129.199 754.984 129.199 752.92ZM144.247 752.956C144.247 751.42 143.815 750.208 142.951 749.32C142.111 748.432 141.079 747.988 139.855 747.988C138.631 747.988 137.587 748.432 136.723 749.32C135.883 750.184 135.463 751.384 135.463 752.92C135.463 754.456 135.883 755.68 136.723 756.592C137.587 757.48 138.631 757.924 139.855 757.924C141.079 757.924 142.111 757.48 142.951 756.592C143.815 755.704 144.247 754.492 144.247 752.956ZM153.633 752.92C153.633 750.856 154.017 749.044 154.785 747.484C155.577 745.924 156.645 744.724 157.989 743.884C159.333 743.044 160.833 742.624 162.489 742.624C163.905 742.624 165.141 742.912 166.197 743.488C167.277 744.064 168.105 744.82 168.681 745.756V742.912H174.837V763H168.681V760.156C168.081 761.092 167.241 761.848 166.161 762.424C165.105 763 163.869 763.288 162.453 763.288C160.821 763.288 159.333 762.868 157.989 762.028C156.645 761.164 155.577 759.952 154.785 758.392C154.017 756.808 153.633 754.984 153.633 752.92ZM168.681 752.956C168.681 751.42 168.249 750.208 167.385 749.32C166.545 748.432 165.513 747.988 164.289 747.988C163.065 747.988 162.021 748.432 161.157 749.32C160.317 750.184 159.897 751.384 159.897 752.92C159.897 754.456 160.317 755.68 161.157 756.592C162.021 757.48 163.065 757.924 164.289 757.924C165.513 757.924 166.545 757.48 167.385 756.592C168.249 755.704 168.681 754.492 168.681 752.956ZM193.076 745.756C193.676 744.82 194.504 744.064 195.56 743.488C196.616 742.912 197.852 742.624 199.268 742.624C200.924 742.624 202.424 743.044 203.768 743.884C205.112 744.724 206.168 745.924 206.936 747.484C207.728 749.044 208.124 750.856 208.124 752.92C208.124 754.984 207.728 756.808 206.936 758.392C206.168 759.952 205.112 761.164 203.768 762.028C202.424 762.868 200.924 763.288 199.268 763.288C197.876 763.288 196.64 763 195.56 762.424C194.504 761.848 193.676 761.104 193.076 760.192V772.576H186.92V742.912H193.076V745.756ZM201.86 752.92C201.86 751.384 201.428 750.184 200.564 749.32C199.724 748.432 198.68 747.988 197.432 747.988C196.208 747.988 195.164 748.432 194.3 749.32C193.46 750.208 193.04 751.42 193.04 752.956C193.04 754.492 193.46 755.704 194.3 756.592C195.164 757.48 196.208 757.924 197.432 757.924C198.656 757.924 199.7 757.48 200.564 756.592C201.428 755.68 201.86 754.456 201.86 752.92ZM230.289 752.632C230.289 753.208 230.253 753.808 230.181 754.432H216.249C216.345 755.68 216.741 756.64 217.437 757.312C218.157 757.96 219.033 758.284 220.065 758.284C221.601 758.284 222.669 757.636 223.269 756.34H229.821C229.485 757.66 228.873 758.848 227.985 759.904C227.121 760.96 226.029 761.788 224.709 762.388C223.389 762.988 221.913 763.288 220.281 763.288C218.313 763.288 216.561 762.868 215.025 762.028C213.489 761.188 212.289 759.988 211.425 758.428C210.561 756.868 210.129 755.044 210.129 752.956C210.129 750.868 210.549 749.044 211.389 747.484C212.253 745.924 213.453 744.724 214.989 743.884C216.525 743.044 218.289 742.624 220.281 742.624C222.225 742.624 223.953 743.032 225.465 743.848C226.977 744.664 228.153 745.828 228.993 747.34C229.857 748.852 230.289 750.616 230.289 752.632ZM223.989 751.012C223.989 749.956 223.629 749.116 222.909 748.492C222.189 747.868 221.289 747.556 220.209 747.556C219.177 747.556 218.301 747.856 217.581 748.456C216.885 749.056 216.453 749.908 216.285 751.012H223.989ZM239.693 746.26C240.413 745.156 241.313 744.292 242.393 743.668C243.473 743.02 244.673 742.696 245.993 742.696V749.212H244.301C242.765 749.212 241.613 749.548 240.845 750.22C240.077 750.868 239.693 752.02 239.693 753.676V763H233.537V742.912H239.693V746.26ZM256.567 742.624C257.983 742.624 259.219 742.912 260.275 743.488C261.355 744.064 262.183 744.82 262.759 745.756V742.912H268.915V762.964C268.915 764.812 268.543 766.48 267.799 767.968C267.079 769.48 265.963 770.68 264.451 771.568C262.963 772.456 261.103 772.9 258.871 772.9C255.895 772.9 253.483 772.192 251.635 770.776C249.787 769.384 248.731 767.488 248.467 765.088H254.551C254.743 765.856 255.199 766.456 255.919 766.888C256.639 767.344 257.527 767.572 258.583 767.572C259.855 767.572 260.863 767.2 261.607 766.456C262.375 765.736 262.759 764.572 262.759 762.964V760.12C262.159 761.056 261.331 761.824 260.275 762.424C259.219 763 257.983 763.288 256.567 763.288C254.911 763.288 253.411 762.868 252.067 762.028C250.723 761.164 249.655 759.952 248.863 758.392C248.095 756.808 247.711 754.984 247.711 752.92C247.711 750.856 248.095 749.044 248.863 747.484C249.655 745.924 250.723 744.724 252.067 743.884C253.411 743.044 254.911 742.624 256.567 742.624ZM262.759 752.956C262.759 751.42 262.327 750.208 261.463 749.32C260.623 748.432 259.591 747.988 258.367 747.988C257.143 747.988 256.099 748.432 255.235 749.32C254.395 750.184 253.975 751.384 253.975 752.92C253.975 754.456 254.395 755.68 255.235 756.592C256.099 757.48 257.143 757.924 258.367 757.924C259.591 757.924 260.623 757.48 261.463 756.592C262.327 755.704 262.759 754.492 262.759 752.956ZM293.205 742.912V763H287.049V760.264C286.425 761.152 285.573 761.872 284.493 762.424C283.437 762.952 282.261 763.216 280.965 763.216C279.429 763.216 278.073 762.88 276.897 762.208C275.721 761.512 274.809 760.516 274.161 759.22C273.513 757.924 273.189 756.4 273.189 754.648V742.912H279.309V753.82C279.309 755.164 279.657 756.208 280.353 756.952C281.049 757.696 281.985 758.068 283.161 758.068C284.361 758.068 285.309 757.696 286.005 756.952C286.701 756.208 287.049 755.164 287.049 753.82V742.912H293.205ZM309.867 742.696C312.219 742.696 314.091 743.464 315.483 745C316.899 746.512 317.607 748.6 317.607 751.264V763H311.487V752.092C311.487 750.748 311.139 749.704 310.443 748.96C309.747 748.216 308.811 747.844 307.635 747.844C306.459 747.844 305.523 748.216 304.827 748.96C304.131 749.704 303.783 750.748 303.783 752.092V763H297.627V742.912H303.783V745.576C304.407 744.688 305.247 743.992 306.303 743.488C307.359 742.96 308.547 742.696 309.867 742.696ZM333.08 757.78V763H329.948C327.716 763 325.976 762.46 324.728 761.38C323.48 760.276 322.856 758.488 322.856 756.016V748.024H320.408V742.912H322.856V738.016H329.012V742.912H333.044V748.024H329.012V756.088C329.012 756.688 329.156 757.12 329.444 757.384C329.732 757.648 330.212 757.78 330.884 757.78H333.08ZM335.285 752.92C335.285 750.856 335.669 749.044 336.437 747.484C337.229 745.924 338.297 744.724 339.641 743.884C340.985 743.044 342.485 742.624 344.141 742.624C345.557 742.624 346.793 742.912 347.849 743.488C348.929 744.064 349.757 744.82 350.333 745.756V742.912H356.489V763H350.333V760.156C349.733 761.092 348.893 761.848 347.813 762.424C346.757 763 345.521 763.288 344.105 763.288C342.473 763.288 340.985 762.868 339.641 762.028C338.297 761.164 337.229 759.952 336.437 758.392C335.669 756.808 335.285 754.984 335.285 752.92ZM350.333 752.956C350.333 751.42 349.901 750.208 349.037 749.32C348.197 748.432 347.165 747.988 345.941 747.988C344.717 747.988 343.673 748.432 342.809 749.32C341.969 750.184 341.549 751.384 341.549 752.92C341.549 754.456 341.969 755.68 342.809 756.592C343.673 757.48 344.717 757.924 345.941 757.924C347.165 757.924 348.197 757.48 349.037 756.592C349.901 755.704 350.333 754.492 350.333 752.956ZM379.768 757.78V763H376.636C374.404 763 372.664 762.46 371.416 761.38C370.168 760.276 369.544 758.488 369.544 756.016V748.024H367.096V742.912H369.544V738.016H375.7V742.912H379.732V748.024H375.7V756.088C375.7 756.688 375.844 757.12 376.132 757.384C376.42 757.648 376.9 757.78 377.572 757.78H379.768ZM402.133 752.632C402.133 753.208 402.097 753.808 402.025 754.432H388.093C388.189 755.68 388.585 756.64 389.281 757.312C390.001 757.96 390.877 758.284 391.909 758.284C393.445 758.284 394.513 757.636 395.113 756.34H401.665C401.329 757.66 400.717 758.848 399.829 759.904C398.965 760.96 397.873 761.788 396.553 762.388C395.233 762.988 393.757 763.288 392.125 763.288C390.157 763.288 388.405 762.868 386.869 762.028C385.333 761.188 384.133 759.988 383.269 758.428C382.405 756.868 381.973 755.044 381.973 752.956C381.973 750.868 382.393 749.044 383.233 747.484C384.097 745.924 385.297 744.724 386.833 743.884C388.369 743.044 390.133 742.624 392.125 742.624C394.069 742.624 395.797 743.032 397.309 743.848C398.821 744.664 399.997 745.828 400.837 747.34C401.701 748.852 402.133 750.616 402.133 752.632ZM395.833 751.012C395.833 749.956 395.473 749.116 394.753 748.492C394.033 747.868 393.133 747.556 392.053 747.556C391.021 747.556 390.145 747.856 389.425 748.456C388.729 749.056 388.297 749.908 388.129 751.012H395.833ZM431.012 742.696C433.508 742.696 435.488 743.452 436.952 744.964C438.44 746.476 439.184 748.576 439.184 751.264V763H433.064V752.092C433.064 750.796 432.716 749.8 432.02 749.104C431.348 748.384 430.412 748.024 429.212 748.024C428.012 748.024 427.064 748.384 426.368 749.104C425.696 749.8 425.36 750.796 425.36 752.092V763H419.24V752.092C419.24 750.796 418.892 749.8 418.196 749.104C417.524 748.384 416.588 748.024 415.388 748.024C414.188 748.024 413.24 748.384 412.544 749.104C411.872 749.8 411.536 750.796 411.536 752.092V763H405.38V742.912H411.536V745.432C412.16 744.592 412.976 743.932 413.984 743.452C414.992 742.948 416.132 742.696 417.404 742.696C418.916 742.696 420.26 743.02 421.436 743.668C422.636 744.316 423.572 745.24 424.244 746.44C424.94 745.336 425.888 744.436 427.088 743.74C428.288 743.044 429.596 742.696 431.012 742.696ZM106.068 784.912V805H99.912V802.264C99.288 803.152 98.436 803.872 97.356 804.424C96.3 804.952 95.124 805.216 93.828 805.216C92.292 805.216 90.936 804.88 89.76 804.208C88.584 803.512 87.672 802.516 87.024 801.22C86.376 799.924 86.052 798.4 86.052 796.648V784.912H92.172V795.82C92.172 797.164 92.52 798.208 93.216 798.952C93.912 799.696 94.848 800.068 96.024 800.068C97.224 800.068 98.172 799.696 98.868 798.952C99.564 798.208 99.912 797.164 99.912 795.82V784.912H106.068ZM136.122 784.696C138.618 784.696 140.598 785.452 142.062 786.964C143.55 788.476 144.294 790.576 144.294 793.264V805H138.174V794.092C138.174 792.796 137.826 791.8 137.13 791.104C136.458 790.384 135.522 790.024 134.322 790.024C133.122 790.024 132.174 790.384 131.478 791.104C130.806 791.8 130.47 792.796 130.47 794.092V805H124.35V794.092C124.35 792.796 124.002 791.8 123.306 791.104C122.634 790.384 121.698 790.024 120.498 790.024C119.298 790.024 118.35 790.384 117.654 791.104C116.982 791.8 116.646 792.796 116.646 794.092V805H110.49V784.912H116.646V787.432C117.27 786.592 118.086 785.932 119.094 785.452C120.102 784.948 121.242 784.696 122.514 784.696C124.026 784.696 125.37 785.02 126.546 785.668C127.746 786.316 128.682 787.24 129.354 788.44C130.05 787.336 130.998 786.436 132.198 785.74C133.398 785.044 134.706 784.696 136.122 784.696ZM147.375 794.92C147.375 792.856 147.759 791.044 148.527 789.484C149.319 787.924 150.387 786.724 151.731 785.884C153.075 785.044 154.575 784.624 156.231 784.624C157.647 784.624 158.883 784.912 159.939 785.488C161.019 786.064 161.847 786.82 162.423 787.756V784.912H168.579V805H162.423V802.156C161.823 803.092 160.983 803.848 159.903 804.424C158.847 805 157.611 805.288 156.195 805.288C154.563 805.288 153.075 804.868 151.731 804.028C150.387 803.164 149.319 801.952 148.527 800.392C147.759 798.808 147.375 796.984 147.375 794.92ZM162.423 794.956C162.423 793.42 161.991 792.208 161.127 791.32C160.287 790.432 159.255 789.988 158.031 789.988C156.807 789.988 155.763 790.432 154.899 791.32C154.059 792.184 153.639 793.384 153.639 794.92C153.639 796.456 154.059 797.68 154.899 798.592C155.763 799.48 156.807 799.924 158.031 799.924C159.255 799.924 160.287 799.48 161.127 798.592C161.991 797.704 162.423 796.492 162.423 794.956ZM186.818 788.26C187.538 787.156 188.438 786.292 189.518 785.668C190.598 785.02 191.798 784.696 193.118 784.696V791.212H191.426C189.89 791.212 188.738 791.548 187.97 792.22C187.202 792.868 186.818 794.02 186.818 795.676V805H180.662V784.912H186.818V788.26ZM214.996 794.632C214.996 795.208 214.96 795.808 214.888 796.432H200.956C201.052 797.68 201.448 798.64 202.144 799.312C202.864 799.96 203.74 800.284 204.772 800.284C206.308 800.284 207.376 799.636 207.976 798.34H214.528C214.192 799.66 213.58 800.848 212.692 801.904C211.828 802.96 210.736 803.788 209.416 804.388C208.096 804.988 206.62 805.288 204.988 805.288C203.02 805.288 201.268 804.868 199.732 804.028C198.196 803.188 196.996 801.988 196.132 800.428C195.268 798.868 194.836 797.044 194.836 794.956C194.836 792.868 195.256 791.044 196.096 789.484C196.96 787.924 198.16 786.724 199.696 785.884C201.232 785.044 202.996 784.624 204.988 784.624C206.932 784.624 208.66 785.032 210.172 785.848C211.684 786.664 212.86 787.828 213.7 789.34C214.564 790.852 214.996 792.616 214.996 794.632ZM208.696 793.012C208.696 791.956 208.336 791.116 207.616 790.492C206.896 789.868 205.996 789.556 204.916 789.556C203.884 789.556 203.008 789.856 202.288 790.456C201.592 791.056 201.16 791.908 200.992 793.012H208.696ZM226.416 805.288C224.664 805.288 223.104 804.988 221.736 804.388C220.368 803.788 219.288 802.972 218.496 801.94C217.704 800.884 217.26 799.708 217.164 798.412H223.248C223.32 799.108 223.644 799.672 224.22 800.104C224.796 800.536 225.504 800.752 226.344 800.752C227.112 800.752 227.7 800.608 228.108 800.32C228.54 800.008 228.756 799.612 228.756 799.132C228.756 798.556 228.456 798.136 227.856 797.872C227.256 797.584 226.284 797.272 224.94 796.936C223.5 796.6 222.3 796.252 221.34 795.892C220.38 795.508 219.552 794.92 218.856 794.128C218.16 793.312 217.812 792.22 217.812 790.852C217.812 789.7 218.124 788.656 218.748 787.72C219.396 786.76 220.332 786.004 221.556 785.452C222.804 784.9 224.28 784.624 225.984 784.624C228.504 784.624 230.484 785.248 231.924 786.496C233.388 787.744 234.228 789.4 234.444 791.464H228.756C228.66 790.768 228.348 790.216 227.82 789.808C227.316 789.4 226.644 789.196 225.804 789.196C225.084 789.196 224.532 789.34 224.148 789.628C223.764 789.892 223.572 790.264 223.572 790.744C223.572 791.32 223.872 791.752 224.472 792.04C225.096 792.328 226.056 792.616 227.352 792.904C228.84 793.288 230.052 793.672 230.988 794.056C231.924 794.416 232.74 795.016 233.436 795.856C234.156 796.672 234.528 797.776 234.552 799.168C234.552 800.344 234.216 801.4 233.544 802.336C232.896 803.248 231.948 803.968 230.7 804.496C229.476 805.024 228.048 805.288 226.416 805.288ZM244.474 787.756C245.074 786.82 245.902 786.064 246.958 785.488C248.014 784.912 249.25 784.624 250.666 784.624C252.322 784.624 253.822 785.044 255.166 785.884C256.51 786.724 257.566 787.924 258.334 789.484C259.126 791.044 259.522 792.856 259.522 794.92C259.522 796.984 259.126 798.808 258.334 800.392C257.566 801.952 256.51 803.164 255.166 804.028C253.822 804.868 252.322 805.288 250.666 805.288C249.274 805.288 248.038 805 246.958 804.424C245.902 803.848 245.074 803.104 244.474 802.192V814.576H238.318V784.912H244.474V787.756ZM253.258 794.92C253.258 793.384 252.826 792.184 251.962 791.32C251.122 790.432 250.078 789.988 248.83 789.988C247.606 789.988 246.562 790.432 245.698 791.32C244.858 792.208 244.438 793.42 244.438 794.956C244.438 796.492 244.858 797.704 245.698 798.592C246.562 799.48 247.606 799.924 248.83 799.924C250.054 799.924 251.098 799.48 251.962 798.592C252.826 797.68 253.258 796.456 253.258 794.92ZM271.896 805.288C269.928 805.288 268.152 804.868 266.568 804.028C265.008 803.188 263.772 801.988 262.86 800.428C261.972 798.868 261.528 797.044 261.528 794.956C261.528 792.892 261.984 791.08 262.896 789.52C263.808 787.936 265.056 786.724 266.64 785.884C268.224 785.044 270 784.624 271.968 784.624C273.936 784.624 275.712 785.044 277.296 785.884C278.88 786.724 280.128 787.936 281.04 789.52C281.952 791.08 282.408 792.892 282.408 794.956C282.408 797.02 281.94 798.844 281.004 800.428C280.092 801.988 278.832 803.188 277.224 804.028C275.64 804.868 273.864 805.288 271.896 805.288ZM271.896 799.96C273.072 799.96 274.068 799.528 274.884 798.664C275.724 797.8 276.144 796.564 276.144 794.956C276.144 793.348 275.736 792.112 274.92 791.248C274.128 790.384 273.144 789.952 271.968 789.952C270.768 789.952 269.772 790.384 268.98 791.248C268.188 792.088 267.792 793.324 267.792 794.956C267.792 796.564 268.176 797.8 268.944 798.664C269.736 799.528 270.72 799.96 271.896 799.96ZM293.845 805.288C292.093 805.288 290.533 804.988 289.165 804.388C287.797 803.788 286.717 802.972 285.925 801.94C285.133 800.884 284.689 799.708 284.593 798.412H290.677C290.749 799.108 291.073 799.672 291.649 800.104C292.225 800.536 292.933 800.752 293.773 800.752C294.541 800.752 295.129 800.608 295.537 800.32C295.969 800.008 296.185 799.612 296.185 799.132C296.185 798.556 295.885 798.136 295.285 797.872C294.685 797.584 293.713 797.272 292.369 796.936C290.929 796.6 289.729 796.252 288.769 795.892C287.809 795.508 286.981 794.92 286.285 794.128C285.589 793.312 285.241 792.22 285.241 790.852C285.241 789.7 285.553 788.656 286.177 787.72C286.825 786.76 287.761 786.004 288.985 785.452C290.233 784.9 291.709 784.624 293.413 784.624C295.933 784.624 297.913 785.248 299.353 786.496C300.817 787.744 301.657 789.4 301.873 791.464H296.185C296.089 790.768 295.777 790.216 295.249 789.808C294.745 789.4 294.073 789.196 293.233 789.196C292.513 789.196 291.961 789.34 291.577 789.628C291.193 789.892 291.001 790.264 291.001 790.744C291.001 791.32 291.301 791.752 291.901 792.04C292.525 792.328 293.485 792.616 294.781 792.904C296.269 793.288 297.481 793.672 298.417 794.056C299.353 794.416 300.169 795.016 300.865 795.856C301.585 796.672 301.957 797.776 301.981 799.168C301.981 800.344 301.645 801.4 300.973 802.336C300.325 803.248 299.377 803.968 298.129 804.496C296.905 805.024 295.477 805.288 293.845 805.288ZM316.944 799.78V805H313.812C311.58 805 309.84 804.46 308.592 803.38C307.344 802.276 306.72 800.488 306.72 798.016V790.024H304.272V784.912H306.72V780.016H312.876V784.912H316.908V790.024H312.876V798.088C312.876 798.688 313.02 799.12 313.308 799.384C313.596 799.648 314.076 799.78 314.748 799.78H316.944ZM319.149 794.92C319.149 792.856 319.533 791.044 320.301 789.484C321.093 787.924 322.161 786.724 323.505 785.884C324.849 785.044 326.349 784.624 328.005 784.624C329.421 784.624 330.657 784.912 331.713 785.488C332.793 786.064 333.621 786.82 334.197 787.756V784.912H340.353V805H334.197V802.156C333.597 803.092 332.757 803.848 331.677 804.424C330.621 805 329.385 805.288 327.969 805.288C326.337 805.288 324.849 804.868 323.505 804.028C322.161 803.164 321.093 801.952 320.301 800.392C319.533 798.808 319.149 796.984 319.149 794.92ZM334.197 794.956C334.197 793.42 333.765 792.208 332.901 791.32C332.061 790.432 331.029 789.988 329.805 789.988C328.581 789.988 327.537 790.432 326.673 791.32C325.833 792.184 325.413 793.384 325.413 794.92C325.413 796.456 325.833 797.68 326.673 798.592C327.537 799.48 328.581 799.924 329.805 799.924C331.029 799.924 332.061 799.48 332.901 798.592C333.765 797.704 334.197 796.492 334.197 794.956ZM347.686 805.288C346.606 805.288 345.718 804.976 345.022 804.352C344.35 803.704 344.014 802.912 344.014 801.976C344.014 801.016 344.35 800.212 345.022 799.564C345.718 798.916 346.606 798.592 347.686 798.592C348.742 798.592 349.606 798.916 350.278 799.564C350.974 800.212 351.322 801.016 351.322 801.976C351.322 802.912 350.974 803.704 350.278 804.352C349.606 804.976 348.742 805.288 347.686 805.288Z" fill="white"/>
<path opacity="0.7" d="M95.4023 848.547H88.2539L86.6484 853H84.3281L90.8438 835.938H92.8125L99.3398 853H97.0312L95.4023 848.547ZM88.9336 846.695H94.7344L91.8281 838.715L88.9336 846.695ZM112.008 846.801C112.008 848.73 111.566 850.285 110.684 851.465C109.801 852.645 108.605 853.234 107.098 853.234C105.559 853.234 104.348 852.746 103.465 851.77V857.875H101.297V840.32H103.277L103.383 841.727C104.266 840.633 105.492 840.086 107.062 840.086C108.586 840.086 109.789 840.66 110.672 841.809C111.562 842.957 112.008 844.555 112.008 846.602V846.801ZM109.84 846.555C109.84 845.125 109.535 843.996 108.926 843.168C108.316 842.34 107.48 841.926 106.418 841.926C105.105 841.926 104.121 842.508 103.465 843.672V849.73C104.113 850.887 105.105 851.465 106.441 851.465C107.48 851.465 108.305 851.055 108.914 850.234C109.531 849.406 109.84 848.18 109.84 846.555ZM120.902 842.266C120.574 842.211 120.219 842.184 119.836 842.184C118.414 842.184 117.449 842.789 116.941 844V853H114.773V840.32H116.883L116.918 841.785C117.629 840.652 118.637 840.086 119.941 840.086C120.363 840.086 120.684 840.141 120.902 840.25V842.266ZM127.934 853.234C126.215 853.234 124.816 852.672 123.738 851.547C122.66 850.414 122.121 848.902 122.121 847.012V846.613C122.121 845.355 122.359 844.234 122.836 843.25C123.32 842.258 123.992 841.484 124.852 840.93C125.719 840.367 126.656 840.086 127.664 840.086C129.312 840.086 130.594 840.629 131.508 841.715C132.422 842.801 132.879 844.355 132.879 846.379V847.281H124.289C124.32 848.531 124.684 849.543 125.379 850.316C126.082 851.082 126.973 851.465 128.051 851.465C128.816 851.465 129.465 851.309 129.996 850.996C130.527 850.684 130.992 850.27 131.391 849.754L132.715 850.785C131.652 852.418 130.059 853.234 127.934 853.234ZM127.664 841.867C126.789 841.867 126.055 842.188 125.461 842.828C124.867 843.461 124.5 844.352 124.359 845.5H130.711V845.336C130.648 844.234 130.352 843.383 129.82 842.781C129.289 842.172 128.57 841.867 127.664 841.867ZM137.449 840.32L137.52 841.914C138.488 840.695 139.754 840.086 141.316 840.086C143.996 840.086 145.348 841.598 145.371 844.621V853H143.203V844.609C143.195 843.695 142.984 843.02 142.57 842.582C142.164 842.145 141.527 841.926 140.66 841.926C139.957 841.926 139.34 842.113 138.809 842.488C138.277 842.863 137.863 843.355 137.566 843.965V853H135.398V840.32H137.449ZM148.113 846.555C148.113 844.609 148.574 843.047 149.496 841.867C150.418 840.68 151.625 840.086 153.117 840.086C154.602 840.086 155.777 840.594 156.645 841.609V835H158.812V853H156.82L156.715 851.641C155.848 852.703 154.641 853.234 153.094 853.234C151.625 853.234 150.426 852.633 149.496 851.43C148.574 850.227 148.113 848.656 148.113 846.719V846.555ZM150.281 846.801C150.281 848.238 150.578 849.363 151.172 850.176C151.766 850.988 152.586 851.395 153.633 851.395C155.008 851.395 156.012 850.777 156.645 849.543V843.719C155.996 842.523 155 841.926 153.656 841.926C152.594 841.926 151.766 842.336 151.172 843.156C150.578 843.977 150.281 845.191 150.281 846.801ZM170.016 853C169.891 852.75 169.789 852.305 169.711 851.664C168.703 852.711 167.5 853.234 166.102 853.234C164.852 853.234 163.824 852.883 163.02 852.18C162.223 851.469 161.824 850.57 161.824 849.484C161.824 848.164 162.324 847.141 163.324 846.414C164.332 845.68 165.746 845.312 167.566 845.312H169.676V844.316C169.676 843.559 169.449 842.957 168.996 842.512C168.543 842.059 167.875 841.832 166.992 841.832C166.219 841.832 165.57 842.027 165.047 842.418C164.523 842.809 164.262 843.281 164.262 843.836H162.082C162.082 843.203 162.305 842.594 162.75 842.008C163.203 841.414 163.812 840.945 164.578 840.602C165.352 840.258 166.199 840.086 167.121 840.086C168.582 840.086 169.727 840.453 170.555 841.188C171.383 841.914 171.812 842.918 171.844 844.199V850.035C171.844 851.199 171.992 852.125 172.289 852.812V853H170.016ZM166.418 851.348C167.098 851.348 167.742 851.172 168.352 850.82C168.961 850.469 169.402 850.012 169.676 849.449V846.848H167.977C165.32 846.848 163.992 847.625 163.992 849.18C163.992 849.859 164.219 850.391 164.672 850.773C165.125 851.156 165.707 851.348 166.418 851.348ZM186.457 853.234C184.738 853.234 183.34 852.672 182.262 851.547C181.184 850.414 180.645 848.902 180.645 847.012V846.613C180.645 845.355 180.883 844.234 181.359 843.25C181.844 842.258 182.516 841.484 183.375 840.93C184.242 840.367 185.18 840.086 186.188 840.086C187.836 840.086 189.117 840.629 190.031 841.715C190.945 842.801 191.402 844.355 191.402 846.379V847.281H182.812C182.844 848.531 183.207 849.543 183.902 850.316C184.605 851.082 185.496 851.465 186.574 851.465C187.34 851.465 187.988 851.309 188.52 850.996C189.051 850.684 189.516 850.27 189.914 849.754L191.238 850.785C190.176 852.418 188.582 853.234 186.457 853.234ZM186.188 841.867C185.312 841.867 184.578 842.188 183.984 842.828C183.391 843.461 183.023 844.352 182.883 845.5H189.234V845.336C189.172 844.234 188.875 843.383 188.344 842.781C187.812 842.172 187.094 841.867 186.188 841.867ZM204.961 851.465C205.734 851.465 206.41 851.23 206.988 850.762C207.566 850.293 207.887 849.707 207.949 849.004H210C209.961 849.73 209.711 850.422 209.25 851.078C208.789 851.734 208.172 852.258 207.398 852.648C206.633 853.039 205.82 853.234 204.961 853.234C203.234 853.234 201.859 852.66 200.836 851.512C199.82 850.355 199.312 848.777 199.312 846.777V846.414C199.312 845.18 199.539 844.082 199.992 843.121C200.445 842.16 201.094 841.414 201.938 840.883C202.789 840.352 203.793 840.086 204.949 840.086C206.371 840.086 207.551 840.512 208.488 841.363C209.434 842.215 209.938 843.32 210 844.68H207.949C207.887 843.859 207.574 843.188 207.012 842.664C206.457 842.133 205.77 841.867 204.949 841.867C203.848 841.867 202.992 842.266 202.383 843.062C201.781 843.852 201.48 844.996 201.48 846.496V846.906C201.48 848.367 201.781 849.492 202.383 850.281C202.984 851.07 203.844 851.465 204.961 851.465ZM211.863 846.543C211.863 845.301 212.105 844.184 212.59 843.191C213.082 842.199 213.762 841.434 214.629 840.895C215.504 840.355 216.5 840.086 217.617 840.086C219.344 840.086 220.738 840.684 221.801 841.879C222.871 843.074 223.406 844.664 223.406 846.648V846.801C223.406 848.035 223.168 849.145 222.691 850.129C222.223 851.105 221.547 851.867 220.664 852.414C219.789 852.961 218.781 853.234 217.641 853.234C215.922 853.234 214.527 852.637 213.457 851.441C212.395 850.246 211.863 848.664 211.863 846.695V846.543ZM214.043 846.801C214.043 848.207 214.367 849.336 215.016 850.188C215.672 851.039 216.547 851.465 217.641 851.465C218.742 851.465 219.617 851.035 220.266 850.176C220.914 849.309 221.238 848.098 221.238 846.543C221.238 845.152 220.906 844.027 220.242 843.168C219.586 842.301 218.711 841.867 217.617 841.867C216.547 841.867 215.684 842.293 215.027 843.145C214.371 843.996 214.043 845.215 214.043 846.801ZM228.164 840.32L228.223 841.727C229.152 840.633 230.406 840.086 231.984 840.086C233.758 840.086 234.965 840.766 235.605 842.125C236.027 841.516 236.574 841.023 237.246 840.648C237.926 840.273 238.727 840.086 239.648 840.086C242.43 840.086 243.844 841.559 243.891 844.504V853H241.723V844.633C241.723 843.727 241.516 843.051 241.102 842.605C240.688 842.152 239.992 841.926 239.016 841.926C238.211 841.926 237.543 842.168 237.012 842.652C236.48 843.129 236.172 843.773 236.086 844.586V853H233.906V844.691C233.906 842.848 233.004 841.926 231.199 841.926C229.777 841.926 228.805 842.531 228.281 843.742V853H226.113V840.32H228.164ZM257.883 846.801C257.883 848.73 257.441 850.285 256.559 851.465C255.676 852.645 254.48 853.234 252.973 853.234C251.434 853.234 250.223 852.746 249.34 851.77V857.875H247.172V840.32H249.152L249.258 841.727C250.141 840.633 251.367 840.086 252.938 840.086C254.461 840.086 255.664 840.66 256.547 841.809C257.438 842.957 257.883 844.555 257.883 846.602V846.801ZM255.715 846.555C255.715 845.125 255.41 843.996 254.801 843.168C254.191 842.34 253.355 841.926 252.293 841.926C250.98 841.926 249.996 842.508 249.34 843.672V849.73C249.988 850.887 250.98 851.465 252.316 851.465C253.355 851.465 254.18 851.055 254.789 850.234C255.406 849.406 255.715 848.18 255.715 846.555ZM268.477 853C268.352 852.75 268.25 852.305 268.172 851.664C267.164 852.711 265.961 853.234 264.562 853.234C263.312 853.234 262.285 852.883 261.48 852.18C260.684 851.469 260.285 850.57 260.285 849.484C260.285 848.164 260.785 847.141 261.785 846.414C262.793 845.68 264.207 845.312 266.027 845.312H268.137V844.316C268.137 843.559 267.91 842.957 267.457 842.512C267.004 842.059 266.336 841.832 265.453 841.832C264.68 841.832 264.031 842.027 263.508 842.418C262.984 842.809 262.723 843.281 262.723 843.836H260.543C260.543 843.203 260.766 842.594 261.211 842.008C261.664 841.414 262.273 840.945 263.039 840.602C263.812 840.258 264.66 840.086 265.582 840.086C267.043 840.086 268.188 840.453 269.016 841.188C269.844 841.914 270.273 842.918 270.305 844.199V850.035C270.305 851.199 270.453 852.125 270.75 852.812V853H268.477ZM264.879 851.348C265.559 851.348 266.203 851.172 266.812 850.82C267.422 850.469 267.863 850.012 268.137 849.449V846.848H266.438C263.781 846.848 262.453 847.625 262.453 849.18C262.453 849.859 262.68 850.391 263.133 850.773C263.586 851.156 264.168 851.348 264.879 851.348ZM279.832 842.266C279.504 842.211 279.148 842.184 278.766 842.184C277.344 842.184 276.379 842.789 275.871 844V853H273.703V840.32H275.812L275.848 841.785C276.559 840.652 277.566 840.086 278.871 840.086C279.293 840.086 279.613 840.141 279.832 840.25V842.266ZM285.363 837.25V840.32H287.73V841.996H285.363V849.859C285.363 850.367 285.469 850.75 285.68 851.008C285.891 851.258 286.25 851.383 286.758 851.383C287.008 851.383 287.352 851.336 287.789 851.242V853C287.219 853.156 286.664 853.234 286.125 853.234C285.156 853.234 284.426 852.941 283.934 852.355C283.441 851.77 283.195 850.938 283.195 849.859V841.996H280.887V840.32H283.195V837.25H285.363ZM292.629 853H290.461V840.32H292.629V853ZM290.285 836.957C290.285 836.605 290.391 836.309 290.602 836.066C290.82 835.824 291.141 835.703 291.562 835.703C291.984 835.703 292.305 835.824 292.523 836.066C292.742 836.309 292.852 836.605 292.852 836.957C292.852 837.309 292.742 837.602 292.523 837.836C292.305 838.07 291.984 838.188 291.562 838.188C291.141 838.188 290.82 838.07 290.602 837.836C290.391 837.602 290.285 837.309 290.285 836.957ZM298.465 853H296.297V835H298.465V853ZM304.113 841.855C305.074 840.676 306.324 840.086 307.863 840.086C310.543 840.086 311.895 841.598 311.918 844.621V853H309.75V844.609C309.742 843.695 309.531 843.02 309.117 842.582C308.711 842.145 308.074 841.926 307.207 841.926C306.504 841.926 305.887 842.113 305.355 842.488C304.824 842.863 304.41 843.355 304.113 843.965V853H301.945V835H304.113V841.855ZM320.426 853.234C318.707 853.234 317.309 852.672 316.23 851.547C315.152 850.414 314.613 848.902 314.613 847.012V846.613C314.613 845.355 314.852 844.234 315.328 843.25C315.812 842.258 316.484 841.484 317.344 840.93C318.211 840.367 319.148 840.086 320.156 840.086C321.805 840.086 323.086 840.629 324 841.715C324.914 842.801 325.371 844.355 325.371 846.379V847.281H316.781C316.812 848.531 317.176 849.543 317.871 850.316C318.574 851.082 319.465 851.465 320.543 851.465C321.309 851.465 321.957 851.309 322.488 850.996C323.02 850.684 323.484 850.27 323.883 849.754L325.207 850.785C324.145 852.418 322.551 853.234 320.426 853.234ZM320.156 841.867C319.281 841.867 318.547 842.188 317.953 842.828C317.359 843.461 316.992 844.352 316.852 845.5H323.203V845.336C323.141 844.234 322.844 843.383 322.312 842.781C321.781 842.172 321.062 841.867 320.156 841.867ZM338.93 851.465C339.703 851.465 340.379 851.23 340.957 850.762C341.535 850.293 341.855 849.707 341.918 849.004H343.969C343.93 849.73 343.68 850.422 343.219 851.078C342.758 851.734 342.141 852.258 341.367 852.648C340.602 853.039 339.789 853.234 338.93 853.234C337.203 853.234 335.828 852.66 334.805 851.512C333.789 850.355 333.281 848.777 333.281 846.777V846.414C333.281 845.18 333.508 844.082 333.961 843.121C334.414 842.16 335.062 841.414 335.906 840.883C336.758 840.352 337.762 840.086 338.918 840.086C340.34 840.086 341.52 840.512 342.457 841.363C343.402 842.215 343.906 843.32 343.969 844.68H341.918C341.855 843.859 341.543 843.188 340.98 842.664C340.426 842.133 339.738 841.867 338.918 841.867C337.816 841.867 336.961 842.266 336.352 843.062C335.75 843.852 335.449 844.996 335.449 846.496V846.906C335.449 848.367 335.75 849.492 336.352 850.281C336.953 851.07 337.812 851.465 338.93 851.465ZM345.832 846.543C345.832 845.301 346.074 844.184 346.559 843.191C347.051 842.199 347.73 841.434 348.598 840.895C349.473 840.355 350.469 840.086 351.586 840.086C353.312 840.086 354.707 840.684 355.77 841.879C356.84 843.074 357.375 844.664 357.375 846.648V846.801C357.375 848.035 357.137 849.145 356.66 850.129C356.191 851.105 355.516 851.867 354.633 852.414C353.758 852.961 352.75 853.234 351.609 853.234C349.891 853.234 348.496 852.637 347.426 851.441C346.363 850.246 345.832 848.664 345.832 846.695V846.543ZM348.012 846.801C348.012 848.207 348.336 849.336 348.984 850.188C349.641 851.039 350.516 851.465 351.609 851.465C352.711 851.465 353.586 851.035 354.234 850.176C354.883 849.309 355.207 848.098 355.207 846.543C355.207 845.152 354.875 844.027 354.211 843.168C353.555 842.301 352.68 841.867 351.586 841.867C350.516 841.867 349.652 842.293 348.996 843.145C348.34 843.996 348.012 845.215 348.012 846.801ZM362.145 840.32L362.215 841.914C363.184 840.695 364.449 840.086 366.012 840.086C368.691 840.086 370.043 841.598 370.066 844.621V853H367.898V844.609C367.891 843.695 367.68 843.02 367.266 842.582C366.859 842.145 366.223 841.926 365.355 841.926C364.652 841.926 364.035 842.113 363.504 842.488C362.973 842.863 362.559 843.355 362.262 843.965V853H360.094V840.32H362.145ZM375.504 841.855C376.465 840.676 377.715 840.086 379.254 840.086C381.934 840.086 383.285 841.598 383.309 844.621V853H381.141V844.609C381.133 843.695 380.922 843.02 380.508 842.582C380.102 842.145 379.465 841.926 378.598 841.926C377.895 841.926 377.277 842.113 376.746 842.488C376.215 842.863 375.801 843.355 375.504 843.965V853H373.336V835H375.504V841.855ZM391.816 853.234C390.098 853.234 388.699 852.672 387.621 851.547C386.543 850.414 386.004 848.902 386.004 847.012V846.613C386.004 845.355 386.242 844.234 386.719 843.25C387.203 842.258 387.875 841.484 388.734 840.93C389.602 840.367 390.539 840.086 391.547 840.086C393.195 840.086 394.477 840.629 395.391 841.715C396.305 842.801 396.762 844.355 396.762 846.379V847.281H388.172C388.203 848.531 388.566 849.543 389.262 850.316C389.965 851.082 390.855 851.465 391.934 851.465C392.699 851.465 393.348 851.309 393.879 850.996C394.41 850.684 394.875 850.27 395.273 849.754L396.598 850.785C395.535 852.418 393.941 853.234 391.816 853.234ZM391.547 841.867C390.672 841.867 389.938 842.188 389.344 842.828C388.75 843.461 388.383 844.352 388.242 845.5H394.594V845.336C394.531 844.234 394.234 843.383 393.703 842.781C393.172 842.172 392.453 841.867 391.547 841.867ZM404.367 851.465C405.141 851.465 405.816 851.23 406.395 850.762C406.973 850.293 407.293 849.707 407.355 849.004H409.406C409.367 849.73 409.117 850.422 408.656 851.078C408.195 851.734 407.578 852.258 406.805 852.648C406.039 853.039 405.227 853.234 404.367 853.234C402.641 853.234 401.266 852.66 400.242 851.512C399.227 850.355 398.719 848.777 398.719 846.777V846.414C398.719 845.18 398.945 844.082 399.398 843.121C399.852 842.16 400.5 841.414 401.344 840.883C402.195 840.352 403.199 840.086 404.355 840.086C405.777 840.086 406.957 840.512 407.895 841.363C408.84 842.215 409.344 843.32 409.406 844.68H407.355C407.293 843.859 406.98 843.188 406.418 842.664C405.863 842.133 405.176 841.867 404.355 841.867C403.254 841.867 402.398 842.266 401.789 843.062C401.188 843.852 400.887 844.996 400.887 846.496V846.906C400.887 848.367 401.188 849.492 401.789 850.281C402.391 851.07 403.25 851.465 404.367 851.465ZM414.199 853H412.031V840.32H414.199V853ZM411.855 836.957C411.855 836.605 411.961 836.309 412.172 836.066C412.391 835.824 412.711 835.703 413.133 835.703C413.555 835.703 413.875 835.824 414.094 836.066C414.312 836.309 414.422 836.605 414.422 836.957C414.422 837.309 414.312 837.602 414.094 837.836C413.875 838.07 413.555 838.188 413.133 838.188C412.711 838.188 412.391 838.07 412.172 837.836C411.961 837.602 411.855 837.309 411.855 836.957ZM419.719 840.32L419.777 841.727C420.707 840.633 421.961 840.086 423.539 840.086C425.312 840.086 426.52 840.766 427.16 842.125C427.582 841.516 428.129 841.023 428.801 840.648C429.48 840.273 430.281 840.086 431.203 840.086C433.984 840.086 435.398 841.559 435.445 844.504V853H433.277V844.633C433.277 843.727 433.07 843.051 432.656 842.605C432.242 842.152 431.547 841.926 430.57 841.926C429.766 841.926 429.098 842.168 428.566 842.652C428.035 843.129 427.727 843.773 427.641 844.586V853H425.461V844.691C425.461 842.848 424.559 841.926 422.754 841.926C421.332 841.926 420.359 842.531 419.836 843.742V853H417.668V840.32H419.719ZM443.988 853.234C442.27 853.234 440.871 852.672 439.793 851.547C438.715 850.414 438.176 848.902 438.176 847.012V846.613C438.176 845.355 438.414 844.234 438.891 843.25C439.375 842.258 440.047 841.484 440.906 840.93C441.773 840.367 442.711 840.086 443.719 840.086C445.367 840.086 446.648 840.629 447.562 841.715C448.477 842.801 448.934 844.355 448.934 846.379V847.281H440.344C440.375 848.531 440.738 849.543 441.434 850.316C442.137 851.082 443.027 851.465 444.105 851.465C444.871 851.465 445.52 851.309 446.051 850.996C446.582 850.684 447.047 850.27 447.445 849.754L448.77 850.785C447.707 852.418 446.113 853.234 443.988 853.234ZM443.719 841.867C442.844 841.867 442.109 842.188 441.516 842.828C440.922 843.461 440.555 844.352 440.414 845.5H446.766V845.336C446.703 844.234 446.406 843.383 445.875 842.781C445.344 842.172 444.625 841.867 443.719 841.867ZM453.504 840.32L453.574 841.914C454.543 840.695 455.809 840.086 457.371 840.086C460.051 840.086 461.402 841.598 461.426 844.621V853H459.258V844.609C459.25 843.695 459.039 843.02 458.625 842.582C458.219 842.145 457.582 841.926 456.715 841.926C456.012 841.926 455.395 842.113 454.863 842.488C454.332 842.863 453.918 843.355 453.621 843.965V853H451.453V840.32H453.504ZM467.637 837.25V840.32H470.004V841.996H467.637V849.859C467.637 850.367 467.742 850.75 467.953 851.008C468.164 851.258 468.523 851.383 469.031 851.383C469.281 851.383 469.625 851.336 470.062 851.242V853C469.492 853.156 468.938 853.234 468.398 853.234C467.43 853.234 466.699 852.941 466.207 852.355C465.715 851.77 465.469 850.938 465.469 849.859V841.996H463.16V840.32H465.469V837.25H467.637ZM471.738 846.543C471.738 845.301 471.98 844.184 472.465 843.191C472.957 842.199 473.637 841.434 474.504 840.895C475.379 840.355 476.375 840.086 477.492 840.086C479.219 840.086 480.613 840.684 481.676 841.879C482.746 843.074 483.281 844.664 483.281 846.648V846.801C483.281 848.035 483.043 849.145 482.566 850.129C482.098 851.105 481.422 851.867 480.539 852.414C479.664 852.961 478.656 853.234 477.516 853.234C475.797 853.234 474.402 852.637 473.332 851.441C472.27 850.246 471.738 848.664 471.738 846.695V846.543ZM473.918 846.801C473.918 848.207 474.242 849.336 474.891 850.188C475.547 851.039 476.422 851.465 477.516 851.465C478.617 851.465 479.492 851.035 480.141 850.176C480.789 849.309 481.113 848.098 481.113 846.543C481.113 845.152 480.781 844.027 480.117 843.168C479.461 842.301 478.586 841.867 477.492 841.867C476.422 841.867 475.559 842.293 474.902 843.145C474.246 843.996 473.918 845.215 473.918 846.801ZM90.7266 883.465C91.5 883.465 92.1758 883.23 92.7539 882.762C93.332 882.293 93.6523 881.707 93.7148 881.004H95.7656C95.7266 881.73 95.4766 882.422 95.0156 883.078C94.5547 883.734 93.9375 884.258 93.1641 884.648C92.3984 885.039 91.5859 885.234 90.7266 885.234C89 885.234 87.625 884.66 86.6016 883.512C85.5859 882.355 85.0781 880.777 85.0781 878.777V878.414C85.0781 877.18 85.3047 876.082 85.7578 875.121C86.2109 874.16 86.8594 873.414 87.7031 872.883C88.5547 872.352 89.5586 872.086 90.7148 872.086C92.1367 872.086 93.3164 872.512 94.2539 873.363C95.1992 874.215 95.7031 875.32 95.7656 876.68H93.7148C93.6523 875.859 93.3398 875.188 92.7773 874.664C92.2227 874.133 91.5352 873.867 90.7148 873.867C89.6133 873.867 88.7578 874.266 88.1484 875.062C87.5469 875.852 87.2461 876.996 87.2461 878.496V878.906C87.2461 880.367 87.5469 881.492 88.1484 882.281C88.75 883.07 89.6094 883.465 90.7266 883.465ZM97.6289 878.543C97.6289 877.301 97.8711 876.184 98.3555 875.191C98.8477 874.199 99.5273 873.434 100.395 872.895C101.27 872.355 102.266 872.086 103.383 872.086C105.109 872.086 106.504 872.684 107.566 873.879C108.637 875.074 109.172 876.664 109.172 878.648V878.801C109.172 880.035 108.934 881.145 108.457 882.129C107.988 883.105 107.312 883.867 106.43 884.414C105.555 884.961 104.547 885.234 103.406 885.234C101.688 885.234 100.293 884.637 99.2227 883.441C98.1602 882.246 97.6289 880.664 97.6289 878.695V878.543ZM99.8086 878.801C99.8086 880.207 100.133 881.336 100.781 882.188C101.438 883.039 102.312 883.465 103.406 883.465C104.508 883.465 105.383 883.035 106.031 882.176C106.68 881.309 107.004 880.098 107.004 878.543C107.004 877.152 106.672 876.027 106.008 875.168C105.352 874.301 104.477 873.867 103.383 873.867C102.312 873.867 101.449 874.293 100.793 875.145C100.137 875.996 99.8086 877.215 99.8086 878.801ZM113.93 872.32L113.988 873.727C114.918 872.633 116.172 872.086 117.75 872.086C119.523 872.086 120.73 872.766 121.371 874.125C121.793 873.516 122.34 873.023 123.012 872.648C123.691 872.273 124.492 872.086 125.414 872.086C128.195 872.086 129.609 873.559 129.656 876.504V885H127.488V876.633C127.488 875.727 127.281 875.051 126.867 874.605C126.453 874.152 125.758 873.926 124.781 873.926C123.977 873.926 123.309 874.168 122.777 874.652C122.246 875.129 121.938 875.773 121.852 876.586V885H119.672V876.691C119.672 874.848 118.77 873.926 116.965 873.926C115.543 873.926 114.57 874.531 114.047 875.742V885H111.879V872.32H113.93ZM138.316 878.543C138.316 877.301 138.559 876.184 139.043 875.191C139.535 874.199 140.215 873.434 141.082 872.895C141.957 872.355 142.953 872.086 144.07 872.086C145.797 872.086 147.191 872.684 148.254 873.879C149.324 875.074 149.859 876.664 149.859 878.648V878.801C149.859 880.035 149.621 881.145 149.145 882.129C148.676 883.105 148 883.867 147.117 884.414C146.242 884.961 145.234 885.234 144.094 885.234C142.375 885.234 140.98 884.637 139.91 883.441C138.848 882.246 138.316 880.664 138.316 878.695V878.543ZM140.496 878.801C140.496 880.207 140.82 881.336 141.469 882.188C142.125 883.039 143 883.465 144.094 883.465C145.195 883.465 146.07 883.035 146.719 882.176C147.367 881.309 147.691 880.098 147.691 878.543C147.691 877.152 147.359 876.027 146.695 875.168C146.039 874.301 145.164 873.867 144.07 873.867C143 873.867 142.137 874.293 141.48 875.145C140.824 875.996 140.496 877.215 140.496 878.801ZM160.406 883.746C159.562 884.738 158.324 885.234 156.691 885.234C155.34 885.234 154.309 884.844 153.598 884.062C152.895 883.273 152.539 882.109 152.531 880.57V872.32H154.699V880.512C154.699 882.434 155.48 883.395 157.043 883.395C158.699 883.395 159.801 882.777 160.348 881.543V872.32H162.516V885H160.453L160.406 883.746ZM168.762 869.25V872.32H171.129V873.996H168.762V881.859C168.762 882.367 168.867 882.75 169.078 883.008C169.289 883.258 169.648 883.383 170.156 883.383C170.406 883.383 170.75 883.336 171.188 883.242V885C170.617 885.156 170.062 885.234 169.523 885.234C168.555 885.234 167.824 884.941 167.332 884.355C166.84 883.77 166.594 882.938 166.594 881.859V873.996H164.285V872.32H166.594V869.25H168.762ZM179.801 874.266C179.473 874.211 179.117 874.184 178.734 874.184C177.312 874.184 176.348 874.789 175.84 876V885H173.672V872.32H175.781L175.816 873.785C176.527 872.652 177.535 872.086 178.84 872.086C179.262 872.086 179.582 872.141 179.801 872.25V874.266ZM189.164 885C189.039 884.75 188.938 884.305 188.859 883.664C187.852 884.711 186.648 885.234 185.25 885.234C184 885.234 182.973 884.883 182.168 884.18C181.371 883.469 180.973 882.57 180.973 881.484C180.973 880.164 181.473 879.141 182.473 878.414C183.48 877.68 184.895 877.312 186.715 877.312H188.824V876.316C188.824 875.559 188.598 874.957 188.145 874.512C187.691 874.059 187.023 873.832 186.141 873.832C185.367 873.832 184.719 874.027 184.195 874.418C183.672 874.809 183.41 875.281 183.41 875.836H181.23C181.23 875.203 181.453 874.594 181.898 874.008C182.352 873.414 182.961 872.945 183.727 872.602C184.5 872.258 185.348 872.086 186.27 872.086C187.73 872.086 188.875 872.453 189.703 873.188C190.531 873.914 190.961 874.918 190.992 876.199V882.035C190.992 883.199 191.141 884.125 191.438 884.812V885H189.164ZM185.566 883.348C186.246 883.348 186.891 883.172 187.5 882.82C188.109 882.469 188.551 882.012 188.824 881.449V878.848H187.125C184.469 878.848 183.141 879.625 183.141 881.18C183.141 881.859 183.367 882.391 183.82 882.773C184.273 883.156 184.855 883.348 185.566 883.348ZM201.773 881.637C201.773 881.051 201.551 880.598 201.105 880.277C200.668 879.949 199.898 879.668 198.797 879.434C197.703 879.199 196.832 878.918 196.184 878.59C195.543 878.262 195.066 877.871 194.754 877.418C194.449 876.965 194.297 876.426 194.297 875.801C194.297 874.762 194.734 873.883 195.609 873.164C196.492 872.445 197.617 872.086 198.984 872.086C200.422 872.086 201.586 872.457 202.477 873.199C203.375 873.941 203.824 874.891 203.824 876.047H201.645C201.645 875.453 201.391 874.941 200.883 874.512C200.383 874.082 199.75 873.867 198.984 873.867C198.195 873.867 197.578 874.039 197.133 874.383C196.688 874.727 196.465 875.176 196.465 875.73C196.465 876.254 196.672 876.648 197.086 876.914C197.5 877.18 198.246 877.434 199.324 877.676C200.41 877.918 201.289 878.207 201.961 878.543C202.633 878.879 203.129 879.285 203.449 879.762C203.777 880.23 203.941 880.805 203.941 881.484C203.941 882.617 203.488 883.527 202.582 884.215C201.676 884.895 200.5 885.234 199.055 885.234C198.039 885.234 197.141 885.055 196.359 884.695C195.578 884.336 194.965 883.836 194.52 883.195C194.082 882.547 193.863 881.848 193.863 881.098H196.031C196.07 881.824 196.359 882.402 196.898 882.832C197.445 883.254 198.164 883.465 199.055 883.465C199.875 883.465 200.531 883.301 201.023 882.973C201.523 882.637 201.773 882.191 201.773 881.637ZM223.43 878.801C223.43 880.73 222.988 882.285 222.105 883.465C221.223 884.645 220.027 885.234 218.52 885.234C216.98 885.234 215.77 884.746 214.887 883.77V889.875H212.719V872.32H214.699L214.805 873.727C215.688 872.633 216.914 872.086 218.484 872.086C220.008 872.086 221.211 872.66 222.094 873.809C222.984 874.957 223.43 876.555 223.43 878.602V878.801ZM221.262 878.555C221.262 877.125 220.957 875.996 220.348 875.168C219.738 874.34 218.902 873.926 217.84 873.926C216.527 873.926 215.543 874.508 214.887 875.672V881.73C215.535 882.887 216.527 883.465 217.863 883.465C218.902 883.465 219.727 883.055 220.336 882.234C220.953 881.406 221.262 880.18 221.262 878.555ZM231.457 885.234C229.738 885.234 228.34 884.672 227.262 883.547C226.184 882.414 225.645 880.902 225.645 879.012V878.613C225.645 877.355 225.883 876.234 226.359 875.25C226.844 874.258 227.516 873.484 228.375 872.93C229.242 872.367 230.18 872.086 231.188 872.086C232.836 872.086 234.117 872.629 235.031 873.715C235.945 874.801 236.402 876.355 236.402 878.379V879.281H227.812C227.844 880.531 228.207 881.543 228.902 882.316C229.605 883.082 230.496 883.465 231.574 883.465C232.34 883.465 232.988 883.309 233.52 882.996C234.051 882.684 234.516 882.27 234.914 881.754L236.238 882.785C235.176 884.418 233.582 885.234 231.457 885.234ZM231.188 873.867C230.312 873.867 229.578 874.188 228.984 874.828C228.391 875.461 228.023 876.352 227.883 877.5H234.234V877.336C234.172 876.234 233.875 875.383 233.344 874.781C232.812 874.172 232.094 873.867 231.188 873.867ZM246.305 881.637C246.305 881.051 246.082 880.598 245.637 880.277C245.199 879.949 244.43 879.668 243.328 879.434C242.234 879.199 241.363 878.918 240.715 878.59C240.074 878.262 239.598 877.871 239.285 877.418C238.98 876.965 238.828 876.426 238.828 875.801C238.828 874.762 239.266 873.883 240.141 873.164C241.023 872.445 242.148 872.086 243.516 872.086C244.953 872.086 246.117 872.457 247.008 873.199C247.906 873.941 248.355 874.891 248.355 876.047H246.176C246.176 875.453 245.922 874.941 245.414 874.512C244.914 874.082 244.281 873.867 243.516 873.867C242.727 873.867 242.109 874.039 241.664 874.383C241.219 874.727 240.996 875.176 240.996 875.73C240.996 876.254 241.203 876.648 241.617 876.914C242.031 877.18 242.777 877.434 243.855 877.676C244.941 877.918 245.82 878.207 246.492 878.543C247.164 878.879 247.66 879.285 247.98 879.762C248.309 880.23 248.473 880.805 248.473 881.484C248.473 882.617 248.02 883.527 247.113 884.215C246.207 884.895 245.031 885.234 243.586 885.234C242.57 885.234 241.672 885.055 240.891 884.695C240.109 884.336 239.496 883.836 239.051 883.195C238.613 882.547 238.395 881.848 238.395 881.098H240.562C240.602 881.824 240.891 882.402 241.43 882.832C241.977 883.254 242.695 883.465 243.586 883.465C244.406 883.465 245.062 883.301 245.555 882.973C246.055 882.637 246.305 882.191 246.305 881.637ZM258.68 881.637C258.68 881.051 258.457 880.598 258.012 880.277C257.574 879.949 256.805 879.668 255.703 879.434C254.609 879.199 253.738 878.918 253.09 878.59C252.449 878.262 251.973 877.871 251.66 877.418C251.355 876.965 251.203 876.426 251.203 875.801C251.203 874.762 251.641 873.883 252.516 873.164C253.398 872.445 254.523 872.086 255.891 872.086C257.328 872.086 258.492 872.457 259.383 873.199C260.281 873.941 260.73 874.891 260.73 876.047H258.551C258.551 875.453 258.297 874.941 257.789 874.512C257.289 874.082 256.656 873.867 255.891 873.867C255.102 873.867 254.484 874.039 254.039 874.383C253.594 874.727 253.371 875.176 253.371 875.73C253.371 876.254 253.578 876.648 253.992 876.914C254.406 877.18 255.152 877.434 256.23 877.676C257.316 877.918 258.195 878.207 258.867 878.543C259.539 878.879 260.035 879.285 260.355 879.762C260.684 880.23 260.848 880.805 260.848 881.484C260.848 882.617 260.395 883.527 259.488 884.215C258.582 884.895 257.406 885.234 255.961 885.234C254.945 885.234 254.047 885.055 253.266 884.695C252.484 884.336 251.871 883.836 251.426 883.195C250.988 882.547 250.77 881.848 250.77 881.098H252.938C252.977 881.824 253.266 882.402 253.805 882.832C254.352 883.254 255.07 883.465 255.961 883.465C256.781 883.465 257.438 883.301 257.93 882.973C258.43 882.637 258.68 882.191 258.68 881.637ZM263.098 878.543C263.098 877.301 263.34 876.184 263.824 875.191C264.316 874.199 264.996 873.434 265.863 872.895C266.738 872.355 267.734 872.086 268.852 872.086C270.578 872.086 271.973 872.684 273.035 873.879C274.105 875.074 274.641 876.664 274.641 878.648V878.801C274.641 880.035 274.402 881.145 273.926 882.129C273.457 883.105 272.781 883.867 271.898 884.414C271.023 884.961 270.016 885.234 268.875 885.234C267.156 885.234 265.762 884.637 264.691 883.441C263.629 882.246 263.098 880.664 263.098 878.695V878.543ZM265.277 878.801C265.277 880.207 265.602 881.336 266.25 882.188C266.906 883.039 267.781 883.465 268.875 883.465C269.977 883.465 270.852 883.035 271.5 882.176C272.148 881.309 272.473 880.098 272.473 878.543C272.473 877.152 272.141 876.027 271.477 875.168C270.82 874.301 269.945 873.867 268.852 873.867C267.781 873.867 266.918 874.293 266.262 875.145C265.605 875.996 265.277 877.215 265.277 878.801ZM285.188 885C285.062 884.75 284.961 884.305 284.883 883.664C283.875 884.711 282.672 885.234 281.273 885.234C280.023 885.234 278.996 884.883 278.191 884.18C277.395 883.469 276.996 882.57 276.996 881.484C276.996 880.164 277.496 879.141 278.496 878.414C279.504 877.68 280.918 877.312 282.738 877.312H284.848V876.316C284.848 875.559 284.621 874.957 284.168 874.512C283.715 874.059 283.047 873.832 282.164 873.832C281.391 873.832 280.742 874.027 280.219 874.418C279.695 874.809 279.434 875.281 279.434 875.836H277.254C277.254 875.203 277.477 874.594 277.922 874.008C278.375 873.414 278.984 872.945 279.75 872.602C280.523 872.258 281.371 872.086 282.293 872.086C283.754 872.086 284.898 872.453 285.727 873.188C286.555 873.914 286.984 874.918 287.016 876.199V882.035C287.016 883.199 287.164 884.125 287.461 884.812V885H285.188ZM281.59 883.348C282.27 883.348 282.914 883.172 283.523 882.82C284.133 882.469 284.574 882.012 284.848 881.449V878.848H283.148C280.492 878.848 279.164 879.625 279.164 881.18C279.164 881.859 279.391 882.391 279.844 882.773C280.297 883.156 280.879 883.348 281.59 883.348ZM297.797 881.637C297.797 881.051 297.574 880.598 297.129 880.277C296.691 879.949 295.922 879.668 294.82 879.434C293.727 879.199 292.855 878.918 292.207 878.59C291.566 878.262 291.09 877.871 290.777 877.418C290.473 876.965 290.32 876.426 290.32 875.801C290.32 874.762 290.758 873.883 291.633 873.164C292.516 872.445 293.641 872.086 295.008 872.086C296.445 872.086 297.609 872.457 298.5 873.199C299.398 873.941 299.848 874.891 299.848 876.047H297.668C297.668 875.453 297.414 874.941 296.906 874.512C296.406 874.082 295.773 873.867 295.008 873.867C294.219 873.867 293.602 874.039 293.156 874.383C292.711 874.727 292.488 875.176 292.488 875.73C292.488 876.254 292.695 876.648 293.109 876.914C293.523 877.18 294.27 877.434 295.348 877.676C296.434 877.918 297.312 878.207 297.984 878.543C298.656 878.879 299.152 879.285 299.473 879.762C299.801 880.23 299.965 880.805 299.965 881.484C299.965 882.617 299.512 883.527 298.605 884.215C297.699 884.895 296.523 885.234 295.078 885.234C294.062 885.234 293.164 885.055 292.383 884.695C291.602 884.336 290.988 883.836 290.543 883.195C290.105 882.547 289.887 881.848 289.887 881.098H292.055C292.094 881.824 292.383 882.402 292.922 882.832C293.469 883.254 294.188 883.465 295.078 883.465C295.898 883.465 296.555 883.301 297.047 882.973C297.547 882.637 297.797 882.191 297.797 881.637Z" fill="#F8F8F8"/>
<defs>
<linearGradient id="paint0_linear" x1="117.618" y1="415.776" x2="228.84" y2="496.888" gradientUnits="userSpaceOnUse">
<stop stop-color="white"/>
<stop offset="1" stop-color="white" stop-opacity="0"/>
</linearGradient>
<linearGradient id="paint1_linear" x1="174.288" y1="337.891" x2="285.51" y2="419.003" gradientUnits="userSpaceOnUse">
<stop stop-color="white"/>
<stop offset="1" stop-color="white" stop-opacity="0"/>
</linearGradient>
<linearGradient id="paint2_linear" x1="100.023" y1="401.489" x2="211.246" y2="482.601" gradientUnits="userSpaceOnUse">
<stop stop-color="white"/>
<stop offset="1" stop-color="white" stop-opacity="0"/>
</linearGradient>
<linearGradient id="paint3_linear" x1="156.693" y1="323.603" x2="267.915" y2="404.714" gradientUnits="userSpaceOnUse">
<stop stop-color="white"/>
<stop offset="1" stop-color="white" stop-opacity="0"/>
</linearGradient>
<linearGradient id="paint4_linear" x1="153.271" y1="544.769" x2="170.727" y2="575.005" gradientUnits="userSpaceOnUse">
<stop stop-color="white"/>
<stop offset="1" stop-color="white" stop-opacity="0"/>
</linearGradient>
<linearGradient id="paint5_linear" x1="310.423" y1="498.183" x2="327.88" y2="528.419" gradientUnits="userSpaceOnUse">
<stop stop-color="white"/>
<stop offset="1" stop-color="white" stop-opacity="0"/>
</linearGradient>
<linearGradient id="paint6_linear" x1="167.661" y1="562.547" x2="148.699" y2="716.299" gradientUnits="userSpaceOnUse">
<stop stop-color="white"/>
<stop offset="1" stop-color="white" stop-opacity="0"/>
</linearGradient>
<linearGradient id="paint7_linear" x1="282.387" y1="551.403" x2="358.094" y2="610.664" gradientUnits="userSpaceOnUse">
<stop stop-color="white"/>
<stop offset="1" stop-color="white" stop-opacity="0"/>
</linearGradient>
<linearGradient id="paint8_linear" x1="326.889" y1="646.562" x2="349.686" y2="664.549" gradientUnits="userSpaceOnUse">
<stop stop-color="white"/>
<stop offset="1" stop-color="white" stop-opacity="0"/>
</linearGradient>
<linearGradient id="paint9_linear" x1="138.215" y1="483.456" x2="160.298" y2="495.763" gradientUnits="userSpaceOnUse">
<stop stop-color="white"/>
<stop offset="1" stop-color="white" stop-opacity="0"/>
</linearGradient>
</defs>
</svg>
