<svg width="790" height="820" viewBox="0 0 790 820" fill="none" xmlns="http://www.w3.org/2000/svg">
<path d="M0 0H676V820H0V0Z" fill="#202024"/>
<path opacity="0.5" d="M230.574 246.837C257.957 230.856 280.594 245.792 284.599 280.279C285.295 286.244 280.768 294.126 275.239 297.348L185.91 349.514C180.381 352.736 175.854 350.124 176.55 343.331C180.555 304.272 203.236 262.818 230.574 246.837Z" fill="url(#paint0_linear)"/>
<path opacity="0.5" d="M200.058 202.073C200.058 225.892 213.814 237.127 230.792 227.198C247.77 217.27 261.526 189.968 261.526 166.15C261.526 142.331 247.77 131.096 230.792 141.025C213.814 150.953 200.058 178.255 200.058 202.073Z" fill="url(#paint1_linear)"/>
<path opacity="0.07" d="M212.987 232.554C240.369 216.574 263.006 231.509 267.011 265.996C267.708 271.962 263.181 279.843 257.652 283.065L168.323 335.231C162.794 338.454 158.267 335.841 158.963 329.048C162.968 289.989 185.605 248.535 212.987 232.554Z" fill="url(#paint2_linear)"/>
<path opacity="0.07" d="M182.471 187.791C182.471 211.609 196.227 222.844 213.205 212.916C230.183 202.988 243.939 175.685 243.939 151.867C243.939 128.048 230.183 116.814 213.205 126.742C196.227 136.67 182.471 163.972 182.471 187.791Z" fill="url(#paint3_linear)"/>
<path opacity="0.2" d="M123.31 369.651C123.31 368.049 124.164 366.569 125.552 365.768L193.941 326.271C196.93 324.544 200.668 326.702 200.668 330.154V362.708L123.31 407.384V369.651Z" fill="url(#paint4_linear)"/>
<path d="M184.952 344.986C184.952 348.295 186.911 349.862 189.349 348.469C191.787 347.076 193.746 343.244 193.746 339.934C193.746 336.625 191.787 335.057 189.349 336.451C186.911 337.844 184.952 341.676 184.952 344.986Z" fill="#E559F9"/>
<path opacity="0.15" d="M180.86 343.548L157.614 357.004V361.837L180.904 348.382L180.86 343.548Z" fill="#FEFEFE"/>
<path opacity="0.15" d="M180.86 353.259L131.32 381.867V386.788L180.86 358.179V353.259Z" fill="#FEFEFE"/>
<path opacity="0.2" d="M280.463 323.06C280.463 321.457 281.318 319.977 282.706 319.176L351.095 279.717C354.085 277.992 357.821 280.15 357.821 283.601V316.159L280.463 360.835V323.06Z" fill="url(#paint5_linear)"/>
<path d="M342.105 298.393C342.105 301.703 344.064 303.27 346.502 301.877C348.94 300.483 350.899 296.651 350.899 293.342C350.899 290.033 348.94 288.465 346.502 289.859C344.064 291.252 342.105 295.084 342.105 298.393Z" fill="#835AFD"/>
<path opacity="0.15" d="M338.144 297.174L324.126 305.273V310.194L338.144 302.094V297.174Z" fill="#FEFEFE"/>
<path opacity="0.15" d="M338.013 306.884L288.473 335.493V340.413L338.013 311.805V306.884Z" fill="#FEFEFE"/>
<path opacity="0.3" d="M230.614 372.832C230.616 369.378 226.878 367.219 223.887 368.946L86.2835 448.416C84.8972 449.216 84.0429 450.695 84.042 452.296L83.9999 526.129L217.645 448.969L228.617 452.553C229.583 452.869 230.575 452.149 230.575 451.133L230.614 372.832Z" fill="url(#paint6_linear)"/>
<path d="M200.842 407.863C200.842 414.177 204.542 417.095 209.156 414.438C213.771 411.782 217.471 404.51 217.471 398.24C217.471 391.926 213.771 389.009 209.156 391.665C204.586 394.321 200.842 401.593 200.842 407.863Z" fill="#E559F9"/>
<path opacity="0.15" d="M192.919 405.425L160.792 423.975V430.68L192.919 412.131V405.425Z" fill="#FEFEFE"/>
<path opacity="0.15" d="M192.919 418.88L96.9728 474.268V480.974L192.919 425.586V418.88Z" fill="#FEFEFE"/>
<path opacity="0.15" d="M192.919 432.335L117.912 475.662V482.367L192.919 439.041V432.335Z" fill="#FEFEFE"/>
<path opacity="0.3" d="M250.424 389.593C250.425 387.992 251.28 386.512 252.667 385.712L390.27 306.284C393.26 304.558 396.997 306.717 396.996 310.17L396.956 378.819L263.311 455.979L253.118 471.084C252.293 472.307 250.384 471.722 250.384 470.248L250.424 389.593Z" fill="url(#paint7_linear)"/>
<path d="M280.202 395.41C280.202 401.723 276.458 408.952 271.887 411.608C267.273 414.264 263.572 411.303 263.572 404.989C263.572 398.675 267.316 391.447 271.887 388.791C276.458 386.178 280.202 389.139 280.202 395.41Z" fill="#835AFD"/>
<path opacity="0.15" d="M288.125 383.87L320.252 365.321V372.026L288.125 390.576V383.87Z" fill="#FEFEFE"/>
<path opacity="0.15" d="M288.081 397.282L384.027 341.894V348.6L288.125 403.988L288.081 397.282Z" fill="#FEFEFE"/>
<path opacity="0.15" d="M288.081 410.737L363.088 367.411V374.116L288.081 417.443V410.737Z" fill="#FEFEFE"/>
<path opacity="0.2" d="M335.967 434.599C333.355 436.08 331.266 439.738 331.266 442.786V456.067L322.472 461.118C319.86 462.598 317.771 466.256 317.771 469.26C317.771 472.265 319.86 473.484 322.472 472.004L331.266 466.909V480.19C331.266 483.195 333.355 484.414 335.967 482.933C338.579 481.453 340.669 477.795 340.669 474.791V461.51L349.462 456.459C352.074 454.978 354.164 451.32 354.164 448.316C354.164 445.311 352.074 444.092 349.462 445.572L340.669 450.624V437.343C340.712 434.295 338.579 433.075 335.967 434.599Z" fill="url(#paint8_linear)"/>
<path opacity="0.2" d="M146.818 264.472L134.716 288.247C133.061 291.513 133.323 294.779 135.325 295.563C137.328 296.347 140.288 294.3 141.942 291.034L142.073 290.729V317.117C142.073 320.122 144.162 321.341 146.774 319.86C149.386 318.336 151.476 314.722 151.476 311.718V285.33L151.606 285.46C153.26 286.81 156.264 285.417 158.223 282.325C160.226 279.234 160.487 275.663 158.833 274.313L146.818 264.472Z" fill="url(#paint9_linear)"/>
<path d="M99.12 568L93.864 558.46H92.388V568H86.232V542.728H96.564C98.556 542.728 100.248 543.076 101.64 543.772C103.056 544.468 104.112 545.428 104.808 546.652C105.504 547.852 105.852 549.196 105.852 550.684C105.852 552.364 105.372 553.864 104.412 555.184C103.476 556.504 102.084 557.44 100.236 557.992L106.068 568H99.12ZM92.388 554.104H96.204C97.332 554.104 98.172 553.828 98.724 553.276C99.3 552.724 99.588 551.944 99.588 550.936C99.588 549.976 99.3 549.22 98.724 548.668C98.172 548.116 97.332 547.84 96.204 547.84H92.388V554.104ZM108.492 557.92C108.492 555.856 108.876 554.044 109.644 552.484C110.436 550.924 111.504 549.724 112.848 548.884C114.192 548.044 115.692 547.624 117.348 547.624C118.764 547.624 120 547.912 121.056 548.488C122.136 549.064 122.964 549.82 123.54 550.756V547.912H129.696V568H123.54V565.156C122.94 566.092 122.1 566.848 121.02 567.424C119.964 568 118.728 568.288 117.312 568.288C115.68 568.288 114.192 567.868 112.848 567.028C111.504 566.164 110.436 564.952 109.644 563.392C108.876 561.808 108.492 559.984 108.492 557.92ZM123.54 557.956C123.54 556.42 123.108 555.208 122.244 554.32C121.404 553.432 120.372 552.988 119.148 552.988C117.924 552.988 116.88 553.432 116.016 554.32C115.176 555.184 114.756 556.384 114.756 557.92C114.756 559.456 115.176 560.68 116.016 561.592C116.88 562.48 117.924 562.924 119.148 562.924C120.372 562.924 121.404 562.48 122.244 561.592C123.108 560.704 123.54 559.492 123.54 557.956ZM146.39 547.696C148.742 547.696 150.614 548.464 152.006 550C153.422 551.512 154.13 553.6 154.13 556.264V568H148.01V557.092C148.01 555.748 147.662 554.704 146.966 553.96C146.27 553.216 145.334 552.844 144.158 552.844C142.982 552.844 142.046 553.216 141.35 553.96C140.654 554.704 140.306 555.748 140.306 557.092V568H134.15V547.912H140.306V550.576C140.93 549.688 141.77 548.992 142.826 548.488C143.882 547.96 145.07 547.696 146.39 547.696ZM157.184 557.992C157.184 556 157.592 554.224 158.408 552.664C159.248 551.104 160.364 549.892 161.756 549.028C163.172 548.14 164.708 547.696 166.364 547.696C167.636 547.696 168.776 547.924 169.784 548.38C170.792 548.812 171.608 549.424 172.232 550.216V547.912H178.388V577.576H172.232V565.48C171.536 566.32 170.684 566.992 169.676 567.496C168.692 568 167.564 568.252 166.292 568.252C164.66 568.252 163.148 567.82 161.756 566.956C160.364 566.092 159.248 564.88 158.408 563.32C157.592 561.76 157.184 559.984 157.184 557.992ZM172.232 557.956C172.232 556.876 172.016 555.976 171.584 555.256C171.176 554.512 170.636 553.96 169.964 553.6C169.292 553.216 168.584 553.024 167.84 553.024C167.12 553.024 166.424 553.216 165.752 553.6C165.08 553.96 164.528 554.512 164.096 555.256C163.664 556 163.448 556.912 163.448 557.992C163.448 559.072 163.664 559.984 164.096 560.728C164.528 561.448 165.08 562 165.752 562.384C166.424 562.744 167.12 562.924 167.84 562.924C168.56 562.924 169.256 562.744 169.928 562.384C170.624 562 171.176 561.436 171.584 560.692C172.016 559.948 172.232 559.036 172.232 557.956ZM202.677 547.912V568H196.521V565.264C195.897 566.152 195.045 566.872 193.965 567.424C192.909 567.952 191.733 568.216 190.437 568.216C188.901 568.216 187.545 567.88 186.369 567.208C185.193 566.512 184.281 565.516 183.633 564.22C182.985 562.924 182.661 561.4 182.661 559.648V547.912H188.781V558.82C188.781 560.164 189.129 561.208 189.825 561.952C190.521 562.696 191.457 563.068 192.633 563.068C193.833 563.068 194.781 562.696 195.477 561.952C196.173 561.208 196.521 560.164 196.521 558.82V547.912H202.677ZM226.035 557.632C226.035 558.208 225.999 558.808 225.927 559.432H211.995C212.091 560.68 212.487 561.64 213.183 562.312C213.903 562.96 214.779 563.284 215.811 563.284C217.347 563.284 218.415 562.636 219.015 561.34H225.567C225.231 562.66 224.619 563.848 223.731 564.904C222.867 565.96 221.775 566.788 220.455 567.388C219.135 567.988 217.659 568.288 216.027 568.288C214.059 568.288 212.307 567.868 210.771 567.028C209.235 566.188 208.035 564.988 207.171 563.428C206.307 561.868 205.875 560.044 205.875 557.956C205.875 555.868 206.295 554.044 207.135 552.484C207.999 550.924 209.199 549.724 210.735 548.884C212.271 548.044 214.035 547.624 216.027 547.624C217.971 547.624 219.699 548.032 221.211 548.848C222.723 549.664 223.899 550.828 224.739 552.34C225.603 553.852 226.035 555.616 226.035 557.632ZM219.735 556.012C219.735 554.956 219.375 554.116 218.655 553.492C217.935 552.868 217.035 552.556 215.955 552.556C214.923 552.556 214.047 552.856 213.327 553.456C212.631 554.056 212.199 554.908 212.031 556.012H219.735ZM245.084 568.288C243.332 568.288 241.772 567.988 240.404 567.388C239.036 566.788 237.956 565.972 237.164 564.94C236.372 563.884 235.928 562.708 235.832 561.412H241.916C241.988 562.108 242.312 562.672 242.888 563.104C243.464 563.536 244.172 563.752 245.012 563.752C245.78 563.752 246.368 563.608 246.776 563.32C247.208 563.008 247.424 562.612 247.424 562.132C247.424 561.556 247.124 561.136 246.524 560.872C245.924 560.584 244.952 560.272 243.608 559.936C242.168 559.6 240.968 559.252 240.008 558.892C239.048 558.508 238.22 557.92 237.524 557.128C236.828 556.312 236.48 555.22 236.48 553.852C236.48 552.7 236.792 551.656 237.416 550.72C238.064 549.76 239 549.004 240.224 548.452C241.472 547.9 242.948 547.624 244.652 547.624C247.172 547.624 249.152 548.248 250.592 549.496C252.056 550.744 252.896 552.4 253.112 554.464H247.424C247.328 553.768 247.016 553.216 246.488 552.808C245.984 552.4 245.312 552.196 244.472 552.196C243.752 552.196 243.2 552.34 242.816 552.628C242.432 552.892 242.24 553.264 242.24 553.744C242.24 554.32 242.54 554.752 243.14 555.04C243.764 555.328 244.724 555.616 246.02 555.904C247.508 556.288 248.72 556.672 249.656 557.056C250.592 557.416 251.408 558.016 252.104 558.856C252.824 559.672 253.196 560.776 253.22 562.168C253.22 563.344 252.884 564.4 252.212 565.336C251.564 566.248 250.616 566.968 249.368 567.496C248.144 568.024 246.716 568.288 245.084 568.288ZM275.922 557.632C275.922 558.208 275.886 558.808 275.814 559.432H261.882C261.978 560.68 262.374 561.64 263.07 562.312C263.79 562.96 264.666 563.284 265.698 563.284C267.234 563.284 268.302 562.636 268.902 561.34H275.454C275.118 562.66 274.506 563.848 273.618 564.904C272.754 565.96 271.662 566.788 270.342 567.388C269.022 567.988 267.546 568.288 265.914 568.288C263.946 568.288 262.194 567.868 260.658 567.028C259.122 566.188 257.922 564.988 257.058 563.428C256.194 561.868 255.762 560.044 255.762 557.956C255.762 555.868 256.182 554.044 257.022 552.484C257.886 550.924 259.086 549.724 260.622 548.884C262.158 548.044 263.922 547.624 265.914 547.624C267.858 547.624 269.586 548.032 271.098 548.848C272.61 549.664 273.786 550.828 274.626 552.34C275.49 553.852 275.922 555.616 275.922 557.632ZM269.622 556.012C269.622 554.956 269.262 554.116 268.542 553.492C267.822 552.868 266.922 552.556 265.842 552.556C264.81 552.556 263.934 552.856 263.214 553.456C262.518 554.056 262.086 554.908 261.918 556.012H269.622ZM299.006 547.912V568H292.85V565.264C292.226 566.152 291.374 566.872 290.294 567.424C289.238 567.952 288.062 568.216 286.766 568.216C285.23 568.216 283.874 567.88 282.698 567.208C281.522 566.512 280.61 565.516 279.962 564.22C279.314 562.924 278.99 561.4 278.99 559.648V547.912H285.11V558.82C285.11 560.164 285.458 561.208 286.154 561.952C286.85 562.696 287.786 563.068 288.962 563.068C290.162 563.068 291.11 562.696 291.806 561.952C292.502 561.208 292.85 560.164 292.85 558.82V547.912H299.006ZM317.212 550.756C317.812 549.82 318.64 549.064 319.696 548.488C320.752 547.912 321.988 547.624 323.404 547.624C325.06 547.624 326.56 548.044 327.904 548.884C329.248 549.724 330.304 550.924 331.072 552.484C331.864 554.044 332.26 555.856 332.26 557.92C332.26 559.984 331.864 561.808 331.072 563.392C330.304 564.952 329.248 566.164 327.904 567.028C326.56 567.868 325.06 568.288 323.404 568.288C322.012 568.288 320.776 568 319.696 567.424C318.64 566.848 317.812 566.104 317.212 565.192V577.576H311.056V547.912H317.212V550.756ZM325.996 557.92C325.996 556.384 325.564 555.184 324.7 554.32C323.86 553.432 322.816 552.988 321.568 552.988C320.344 552.988 319.3 553.432 318.436 554.32C317.596 555.208 317.176 556.42 317.176 557.956C317.176 559.492 317.596 560.704 318.436 561.592C319.3 562.48 320.344 562.924 321.568 562.924C322.792 562.924 323.836 562.48 324.7 561.592C325.564 560.68 325.996 559.456 325.996 557.92ZM354.426 557.632C354.426 558.208 354.39 558.808 354.318 559.432H340.386C340.482 560.68 340.878 561.64 341.574 562.312C342.294 562.96 343.17 563.284 344.202 563.284C345.738 563.284 346.806 562.636 347.406 561.34H353.958C353.622 562.66 353.01 563.848 352.122 564.904C351.258 565.96 350.166 566.788 348.846 567.388C347.526 567.988 346.05 568.288 344.418 568.288C342.45 568.288 340.698 567.868 339.162 567.028C337.626 566.188 336.426 564.988 335.562 563.428C334.698 561.868 334.266 560.044 334.266 557.956C334.266 555.868 334.686 554.044 335.526 552.484C336.39 550.924 337.59 549.724 339.126 548.884C340.662 548.044 342.426 547.624 344.418 547.624C346.362 547.624 348.09 548.032 349.602 548.848C351.114 549.664 352.29 550.828 353.13 552.34C353.994 553.852 354.426 555.616 354.426 557.632ZM348.126 556.012C348.126 554.956 347.766 554.116 347.046 553.492C346.326 552.868 345.426 552.556 344.346 552.556C343.314 552.556 342.438 552.856 341.718 553.456C341.022 554.056 340.59 554.908 340.422 556.012H348.126ZM363.829 551.26C364.549 550.156 365.449 549.292 366.529 548.668C367.609 548.02 368.809 547.696 370.129 547.696V554.212H368.437C366.901 554.212 365.749 554.548 364.981 555.22C364.213 555.868 363.829 557.02 363.829 558.676V568H357.673V547.912H363.829V551.26ZM383.152 553.024H379.84V568H373.684V553.024H371.452V547.912H373.684V547.336C373.684 544.864 374.392 542.992 375.808 541.72C377.224 540.424 379.3 539.776 382.036 539.776C382.492 539.776 382.828 539.788 383.044 539.812V545.032C381.868 544.96 381.04 545.128 380.56 545.536C380.08 545.944 379.84 546.676 379.84 547.732V547.912H383.152V553.024ZM389.141 545.824C388.061 545.824 387.173 545.512 386.477 544.888C385.805 544.24 385.469 543.448 385.469 542.512C385.469 541.552 385.805 540.76 386.477 540.136C387.173 539.488 388.061 539.164 389.141 539.164C390.197 539.164 391.061 539.488 391.733 540.136C392.429 540.76 392.777 541.552 392.777 542.512C392.777 543.448 392.429 544.24 391.733 544.888C391.061 545.512 390.197 545.824 389.141 545.824ZM392.201 547.912V568H386.045V547.912H392.201ZM402.818 541.36V568H396.662V541.36H402.818ZM96.312 595.024H93V610H86.844V595.024H84.612V589.912H86.844V589.336C86.844 586.864 87.552 584.992 88.968 583.72C90.384 582.424 92.46 581.776 95.196 581.776C95.652 581.776 95.988 581.788 96.204 581.812V587.032C95.028 586.96 94.2 587.128 93.72 587.536C93.24 587.944 93 588.676 93 589.732V589.912H96.312V595.024ZM97.9807 599.92C97.9807 597.856 98.3647 596.044 99.1327 594.484C99.9247 592.924 100.993 591.724 102.337 590.884C103.681 590.044 105.181 589.624 106.837 589.624C108.253 589.624 109.489 589.912 110.545 590.488C111.625 591.064 112.453 591.82 113.029 592.756V589.912H119.185V610H113.029V607.156C112.429 608.092 111.589 608.848 110.509 609.424C109.453 610 108.217 610.288 106.801 610.288C105.169 610.288 103.681 609.868 102.337 609.028C100.993 608.164 99.9247 606.952 99.1327 605.392C98.3647 603.808 97.9807 601.984 97.9807 599.92ZM113.029 599.956C113.029 598.42 112.597 597.208 111.733 596.32C110.893 595.432 109.861 594.988 108.637 594.988C107.413 594.988 106.369 595.432 105.505 596.32C104.665 597.184 104.245 598.384 104.245 599.92C104.245 601.456 104.665 602.68 105.505 603.592C106.369 604.48 107.413 604.924 108.637 604.924C109.861 604.924 110.893 604.48 111.733 603.592C112.597 602.704 113.029 601.492 113.029 599.956ZM129.398 604.924H138.11V610H122.522V605.104L130.874 594.988H122.594V589.912H137.93V594.808L129.398 604.924ZM160.434 599.632C160.434 600.208 160.398 600.808 160.326 601.432H146.394C146.49 602.68 146.886 603.64 147.582 604.312C148.302 604.96 149.178 605.284 150.21 605.284C151.746 605.284 152.814 604.636 153.414 603.34H159.966C159.63 604.66 159.018 605.848 158.13 606.904C157.266 607.96 156.174 608.788 154.854 609.388C153.534 609.988 152.058 610.288 150.426 610.288C148.458 610.288 146.706 609.868 145.17 609.028C143.634 608.188 142.434 606.988 141.57 605.428C140.706 603.868 140.274 602.044 140.274 599.956C140.274 597.868 140.694 596.044 141.534 594.484C142.398 592.924 143.598 591.724 145.134 590.884C146.67 590.044 148.434 589.624 150.426 589.624C152.37 589.624 154.098 590.032 155.61 590.848C157.122 591.664 158.298 592.828 159.138 594.34C160.002 595.852 160.434 597.616 160.434 599.632ZM154.134 598.012C154.134 596.956 153.774 596.116 153.054 595.492C152.334 594.868 151.434 594.556 150.354 594.556C149.322 594.556 148.446 594.856 147.726 595.456C147.03 596.056 146.598 596.908 146.43 598.012H154.134ZM175.921 589.696C178.273 589.696 180.145 590.464 181.537 592C182.953 593.512 183.661 595.6 183.661 598.264V610H177.541V599.092C177.541 597.748 177.193 596.704 176.497 595.96C175.801 595.216 174.865 594.844 173.689 594.844C172.513 594.844 171.577 595.216 170.881 595.96C170.185 596.704 169.837 597.748 169.837 599.092V610H163.681V589.912H169.837V592.576C170.461 591.688 171.301 590.992 172.357 590.488C173.413 589.96 174.601 589.696 175.921 589.696ZM186.715 599.92C186.715 597.856 187.099 596.044 187.867 594.484C188.659 592.924 189.727 591.724 191.071 590.884C192.415 590.044 193.915 589.624 195.571 589.624C196.891 589.624 198.091 589.9 199.171 590.452C200.275 591.004 201.139 591.748 201.763 592.684V583.36H207.919V610H201.763V607.12C201.187 608.08 200.359 608.848 199.279 609.424C198.223 610 196.987 610.288 195.571 610.288C193.915 610.288 192.415 609.868 191.071 609.028C189.727 608.164 188.659 606.952 187.867 605.392C187.099 603.808 186.715 601.984 186.715 599.92ZM201.763 599.956C201.763 598.42 201.331 597.208 200.467 596.32C199.627 595.432 198.595 594.988 197.371 594.988C196.147 594.988 195.103 595.432 194.239 596.32C193.399 597.184 192.979 598.384 192.979 599.92C192.979 601.456 193.399 602.68 194.239 603.592C195.103 604.48 196.147 604.924 197.371 604.924C198.595 604.924 199.627 604.48 200.467 603.592C201.331 602.704 201.763 601.492 201.763 599.956ZM221.517 610.288C219.549 610.288 217.773 609.868 216.189 609.028C214.629 608.188 213.393 606.988 212.481 605.428C211.593 603.868 211.149 602.044 211.149 599.956C211.149 597.892 211.605 596.08 212.517 594.52C213.429 592.936 214.677 591.724 216.261 590.884C217.845 590.044 219.621 589.624 221.589 589.624C223.557 589.624 225.333 590.044 226.917 590.884C228.501 591.724 229.749 592.936 230.661 594.52C231.573 596.08 232.029 597.892 232.029 599.956C232.029 602.02 231.561 603.844 230.625 605.428C229.713 606.988 228.453 608.188 226.845 609.028C225.261 609.868 223.485 610.288 221.517 610.288ZM221.517 604.96C222.693 604.96 223.689 604.528 224.505 603.664C225.345 602.8 225.765 601.564 225.765 599.956C225.765 598.348 225.357 597.112 224.541 596.248C223.749 595.384 222.765 594.952 221.589 594.952C220.389 594.952 219.393 595.384 218.601 596.248C217.809 597.088 217.413 598.324 217.413 599.956C217.413 601.564 217.797 602.8 218.565 603.664C219.357 604.528 220.341 604.96 221.517 604.96ZM255.163 589.696C257.515 589.696 259.387 590.464 260.779 592C262.195 593.512 262.903 595.6 262.903 598.264V610H256.783V599.092C256.783 597.748 256.435 596.704 255.739 595.96C255.043 595.216 254.107 594.844 252.931 594.844C251.755 594.844 250.819 595.216 250.123 595.96C249.427 596.704 249.079 597.748 249.079 599.092V610H242.923V589.912H249.079V592.576C249.703 591.688 250.543 590.992 251.599 590.488C252.655 589.96 253.843 589.696 255.163 589.696ZM276.325 610.288C274.357 610.288 272.581 609.868 270.997 609.028C269.437 608.188 268.201 606.988 267.289 605.428C266.401 603.868 265.957 602.044 265.957 599.956C265.957 597.892 266.413 596.08 267.325 594.52C268.237 592.936 269.485 591.724 271.069 590.884C272.653 590.044 274.429 589.624 276.397 589.624C278.365 589.624 280.141 590.044 281.725 590.884C283.309 591.724 284.557 592.936 285.469 594.52C286.381 596.08 286.837 597.892 286.837 599.956C286.837 602.02 286.369 603.844 285.433 605.428C284.521 606.988 283.261 608.188 281.653 609.028C280.069 609.868 278.293 610.288 276.325 610.288ZM276.325 604.96C277.501 604.96 278.497 604.528 279.313 603.664C280.153 602.8 280.573 601.564 280.573 599.956C280.573 598.348 280.165 597.112 279.349 596.248C278.557 595.384 277.573 594.952 276.397 594.952C275.197 594.952 274.201 595.384 273.409 596.248C272.617 597.088 272.221 598.324 272.221 599.956C272.221 601.564 272.605 602.8 273.373 603.664C274.165 604.528 275.149 604.96 276.325 604.96ZM299.139 604.24L303.495 589.912H310.047L302.919 610H295.323L288.195 589.912H294.783L299.139 604.24ZM311.414 599.92C311.414 597.856 311.798 596.044 312.566 594.484C313.358 592.924 314.426 591.724 315.77 590.884C317.114 590.044 318.614 589.624 320.27 589.624C321.686 589.624 322.922 589.912 323.978 590.488C325.058 591.064 325.886 591.82 326.462 592.756V589.912H332.618V610H326.462V607.156C325.862 608.092 325.022 608.848 323.942 609.424C322.886 610 321.65 610.288 320.234 610.288C318.602 610.288 317.114 609.868 315.77 609.028C314.426 608.164 313.358 606.952 312.566 605.392C311.798 603.808 311.414 601.984 311.414 599.92ZM326.462 599.956C326.462 598.42 326.03 597.208 325.166 596.32C324.326 595.432 323.294 594.988 322.07 594.988C320.846 594.988 319.802 595.432 318.938 596.32C318.098 597.184 317.678 598.384 317.678 599.92C317.678 601.456 318.098 602.68 318.938 603.592C319.802 604.48 320.846 604.924 322.07 604.924C323.294 604.924 324.326 604.48 325.166 603.592C326.03 602.704 326.462 601.492 326.462 599.956ZM345.244 610.288C343.492 610.288 341.932 609.988 340.564 609.388C339.196 608.788 338.116 607.972 337.324 606.94C336.532 605.884 336.088 604.708 335.992 603.412H342.076C342.148 604.108 342.472 604.672 343.048 605.104C343.624 605.536 344.332 605.752 345.172 605.752C345.94 605.752 346.528 605.608 346.936 605.32C347.368 605.008 347.584 604.612 347.584 604.132C347.584 603.556 347.284 603.136 346.684 602.872C346.084 602.584 345.112 602.272 343.768 601.936C342.328 601.6 341.128 601.252 340.168 600.892C339.208 600.508 338.38 599.92 337.684 599.128C336.988 598.312 336.64 597.22 336.64 595.852C336.64 594.7 336.952 593.656 337.576 592.72C338.224 591.76 339.16 591.004 340.384 590.452C341.632 589.9 343.108 589.624 344.812 589.624C347.332 589.624 349.312 590.248 350.752 591.496C352.216 592.744 353.056 594.4 353.272 596.464H347.584C347.488 595.768 347.176 595.216 346.648 594.808C346.144 594.4 345.472 594.196 344.632 594.196C343.912 594.196 343.36 594.34 342.976 594.628C342.592 594.892 342.4 595.264 342.4 595.744C342.4 596.32 342.7 596.752 343.3 597.04C343.924 597.328 344.884 597.616 346.18 597.904C347.668 598.288 348.88 598.672 349.816 599.056C350.752 599.416 351.568 600.016 352.264 600.856C352.984 601.672 353.356 602.776 353.38 604.168C353.38 605.344 353.044 606.4 352.372 607.336C351.724 608.248 350.776 608.968 349.528 609.496C348.304 610.024 346.876 610.288 345.244 610.288ZM375.971 604.78V610H372.839C370.607 610 368.867 609.46 367.619 608.38C366.371 607.276 365.747 605.488 365.747 603.016V595.024H363.299V589.912H365.747V585.016H371.903V589.912H375.935V595.024H371.903V603.088C371.903 603.688 372.047 604.12 372.335 604.384C372.623 604.648 373.103 604.78 373.775 604.78H375.971ZM378.176 599.92C378.176 597.856 378.56 596.044 379.328 594.484C380.12 592.924 381.188 591.724 382.532 590.884C383.876 590.044 385.376 589.624 387.032 589.624C388.448 589.624 389.684 589.912 390.74 590.488C391.82 591.064 392.648 591.82 393.224 592.756V589.912H399.38V610H393.224V607.156C392.624 608.092 391.784 608.848 390.704 609.424C389.648 610 388.412 610.288 386.996 610.288C385.364 610.288 383.876 609.868 382.532 609.028C381.188 608.164 380.12 606.952 379.328 605.392C378.56 603.808 378.176 601.984 378.176 599.92ZM393.224 599.956C393.224 598.42 392.792 597.208 391.928 596.32C391.088 595.432 390.056 594.988 388.832 594.988C387.608 594.988 386.564 595.432 385.7 596.32C384.86 597.184 384.44 598.384 384.44 599.92C384.44 601.456 384.86 602.68 385.7 603.592C386.564 604.48 387.608 604.924 388.832 604.924C390.056 604.924 391.088 604.48 391.928 603.592C392.792 602.704 393.224 601.492 393.224 599.956ZM409.99 593.26C410.71 592.156 411.61 591.292 412.69 590.668C413.77 590.02 414.97 589.696 416.29 589.696V596.212H414.598C413.062 596.212 411.91 596.548 411.142 597.22C410.374 597.868 409.99 599.02 409.99 600.676V610H403.834V589.912H409.99V593.26ZM438.168 599.632C438.168 600.208 438.132 600.808 438.06 601.432H424.128C424.224 602.68 424.62 603.64 425.316 604.312C426.036 604.96 426.912 605.284 427.944 605.284C429.48 605.284 430.548 604.636 431.148 603.34H437.7C437.364 604.66 436.752 605.848 435.864 606.904C435 607.96 433.908 608.788 432.588 609.388C431.268 609.988 429.792 610.288 428.16 610.288C426.192 610.288 424.44 609.868 422.904 609.028C421.368 608.188 420.168 606.988 419.304 605.428C418.44 603.868 418.008 602.044 418.008 599.956C418.008 597.868 418.428 596.044 419.268 594.484C420.132 592.924 421.332 591.724 422.868 590.884C424.404 590.044 426.168 589.624 428.16 589.624C430.104 589.624 431.832 590.032 433.344 590.848C434.856 591.664 436.032 592.828 436.872 594.34C437.736 595.852 438.168 597.616 438.168 599.632ZM431.868 598.012C431.868 596.956 431.508 596.116 430.788 595.492C430.068 594.868 429.168 594.556 428.088 594.556C427.056 594.556 426.18 594.856 425.46 595.456C424.764 596.056 424.332 596.908 424.164 598.012H431.868ZM451.496 595.024H448.184V610H442.028V595.024H439.796V589.912H442.028V589.336C442.028 586.864 442.736 584.992 444.152 583.72C445.568 582.424 447.644 581.776 450.38 581.776C450.836 581.776 451.172 581.788 451.388 581.812V587.032C450.212 586.96 449.384 587.128 448.904 587.536C448.424 587.944 448.184 588.676 448.184 589.732V589.912H451.496V595.024ZM453.164 599.92C453.164 597.856 453.548 596.044 454.316 594.484C455.108 592.924 456.176 591.724 457.52 590.884C458.864 590.044 460.364 589.624 462.02 589.624C463.436 589.624 464.672 589.912 465.728 590.488C466.808 591.064 467.636 591.82 468.212 592.756V589.912H474.368V610H468.212V607.156C467.612 608.092 466.772 608.848 465.692 609.424C464.636 610 463.4 610.288 461.984 610.288C460.352 610.288 458.864 609.868 457.52 609.028C456.176 608.164 455.108 606.952 454.316 605.392C453.548 603.808 453.164 601.984 453.164 599.92ZM468.212 599.956C468.212 598.42 467.78 597.208 466.916 596.32C466.076 595.432 465.044 594.988 463.82 594.988C462.596 594.988 461.552 595.432 460.688 596.32C459.848 597.184 459.428 598.384 459.428 599.92C459.428 601.456 459.848 602.68 460.688 603.592C461.552 604.48 462.596 604.924 463.82 604.924C465.044 604.924 466.076 604.48 466.916 603.592C467.78 602.704 468.212 601.492 468.212 599.956ZM486.994 610.288C485.242 610.288 483.682 609.988 482.314 609.388C480.946 608.788 479.866 607.972 479.074 606.94C478.282 605.884 477.838 604.708 477.742 603.412H483.826C483.898 604.108 484.222 604.672 484.798 605.104C485.374 605.536 486.082 605.752 486.922 605.752C487.69 605.752 488.278 605.608 488.686 605.32C489.118 605.008 489.334 604.612 489.334 604.132C489.334 603.556 489.034 603.136 488.434 602.872C487.834 602.584 486.862 602.272 485.518 601.936C484.078 601.6 482.878 601.252 481.918 600.892C480.958 600.508 480.13 599.92 479.434 599.128C478.738 598.312 478.39 597.22 478.39 595.852C478.39 594.7 478.702 593.656 479.326 592.72C479.974 591.76 480.91 591.004 482.134 590.452C483.382 589.9 484.858 589.624 486.562 589.624C489.082 589.624 491.062 590.248 492.502 591.496C493.966 592.744 494.806 594.4 495.022 596.464H489.334C489.238 595.768 488.926 595.216 488.398 594.808C487.894 594.4 487.222 594.196 486.382 594.196C485.662 594.196 485.11 594.34 484.726 594.628C484.342 594.892 484.15 595.264 484.15 595.744C484.15 596.32 484.45 596.752 485.05 597.04C485.674 597.328 486.634 597.616 487.93 597.904C489.418 598.288 490.63 598.672 491.566 599.056C492.502 599.416 493.318 600.016 494.014 600.856C494.734 601.672 495.106 602.776 495.13 604.168C495.13 605.344 494.794 606.4 494.122 607.336C493.474 608.248 492.526 608.968 491.278 609.496C490.054 610.024 488.626 610.288 486.994 610.288Z" fill="white"/>
<path opacity="0.7" d="M95.4023 653.547H88.2539L86.6484 658H84.3281L90.8438 640.938H92.8125L99.3398 658H97.0312L95.4023 653.547ZM88.9336 651.695H94.7344L91.8281 643.715L88.9336 651.695ZM112.008 651.801C112.008 653.73 111.566 655.285 110.684 656.465C109.801 657.645 108.605 658.234 107.098 658.234C105.559 658.234 104.348 657.746 103.465 656.77V662.875H101.297V645.32H103.277L103.383 646.727C104.266 645.633 105.492 645.086 107.062 645.086C108.586 645.086 109.789 645.66 110.672 646.809C111.562 647.957 112.008 649.555 112.008 651.602V651.801ZM109.84 651.555C109.84 650.125 109.535 648.996 108.926 648.168C108.316 647.34 107.48 646.926 106.418 646.926C105.105 646.926 104.121 647.508 103.465 648.672V654.73C104.113 655.887 105.105 656.465 106.441 656.465C107.48 656.465 108.305 656.055 108.914 655.234C109.531 654.406 109.84 653.18 109.84 651.555ZM120.902 647.266C120.574 647.211 120.219 647.184 119.836 647.184C118.414 647.184 117.449 647.789 116.941 649V658H114.773V645.32H116.883L116.918 646.785C117.629 645.652 118.637 645.086 119.941 645.086C120.363 645.086 120.684 645.141 120.902 645.25V647.266ZM127.934 658.234C126.215 658.234 124.816 657.672 123.738 656.547C122.66 655.414 122.121 653.902 122.121 652.012V651.613C122.121 650.355 122.359 649.234 122.836 648.25C123.32 647.258 123.992 646.484 124.852 645.93C125.719 645.367 126.656 645.086 127.664 645.086C129.312 645.086 130.594 645.629 131.508 646.715C132.422 647.801 132.879 649.355 132.879 651.379V652.281H124.289C124.32 653.531 124.684 654.543 125.379 655.316C126.082 656.082 126.973 656.465 128.051 656.465C128.816 656.465 129.465 656.309 129.996 655.996C130.527 655.684 130.992 655.27 131.391 654.754L132.715 655.785C131.652 657.418 130.059 658.234 127.934 658.234ZM127.664 646.867C126.789 646.867 126.055 647.188 125.461 647.828C124.867 648.461 124.5 649.352 124.359 650.5H130.711V650.336C130.648 649.234 130.352 648.383 129.82 647.781C129.289 647.172 128.57 646.867 127.664 646.867ZM137.449 645.32L137.52 646.914C138.488 645.695 139.754 645.086 141.316 645.086C143.996 645.086 145.348 646.598 145.371 649.621V658H143.203V649.609C143.195 648.695 142.984 648.02 142.57 647.582C142.164 647.145 141.527 646.926 140.66 646.926C139.957 646.926 139.34 647.113 138.809 647.488C138.277 647.863 137.863 648.355 137.566 648.965V658H135.398V645.32H137.449ZM148.113 651.555C148.113 649.609 148.574 648.047 149.496 646.867C150.418 645.68 151.625 645.086 153.117 645.086C154.602 645.086 155.777 645.594 156.645 646.609V640H158.812V658H156.82L156.715 656.641C155.848 657.703 154.641 658.234 153.094 658.234C151.625 658.234 150.426 657.633 149.496 656.43C148.574 655.227 148.113 653.656 148.113 651.719V651.555ZM150.281 651.801C150.281 653.238 150.578 654.363 151.172 655.176C151.766 655.988 152.586 656.395 153.633 656.395C155.008 656.395 156.012 655.777 156.645 654.543V648.719C155.996 647.523 155 646.926 153.656 646.926C152.594 646.926 151.766 647.336 151.172 648.156C150.578 648.977 150.281 650.191 150.281 651.801ZM170.016 658C169.891 657.75 169.789 657.305 169.711 656.664C168.703 657.711 167.5 658.234 166.102 658.234C164.852 658.234 163.824 657.883 163.02 657.18C162.223 656.469 161.824 655.57 161.824 654.484C161.824 653.164 162.324 652.141 163.324 651.414C164.332 650.68 165.746 650.312 167.566 650.312H169.676V649.316C169.676 648.559 169.449 647.957 168.996 647.512C168.543 647.059 167.875 646.832 166.992 646.832C166.219 646.832 165.57 647.027 165.047 647.418C164.523 647.809 164.262 648.281 164.262 648.836H162.082C162.082 648.203 162.305 647.594 162.75 647.008C163.203 646.414 163.812 645.945 164.578 645.602C165.352 645.258 166.199 645.086 167.121 645.086C168.582 645.086 169.727 645.453 170.555 646.188C171.383 646.914 171.812 647.918 171.844 649.199V655.035C171.844 656.199 171.992 657.125 172.289 657.812V658H170.016ZM166.418 656.348C167.098 656.348 167.742 656.172 168.352 655.82C168.961 655.469 169.402 655.012 169.676 654.449V651.848H167.977C165.32 651.848 163.992 652.625 163.992 654.18C163.992 654.859 164.219 655.391 164.672 655.773C165.125 656.156 165.707 656.348 166.418 656.348ZM186.457 658.234C184.738 658.234 183.34 657.672 182.262 656.547C181.184 655.414 180.645 653.902 180.645 652.012V651.613C180.645 650.355 180.883 649.234 181.359 648.25C181.844 647.258 182.516 646.484 183.375 645.93C184.242 645.367 185.18 645.086 186.188 645.086C187.836 645.086 189.117 645.629 190.031 646.715C190.945 647.801 191.402 649.355 191.402 651.379V652.281H182.812C182.844 653.531 183.207 654.543 183.902 655.316C184.605 656.082 185.496 656.465 186.574 656.465C187.34 656.465 187.988 656.309 188.52 655.996C189.051 655.684 189.516 655.27 189.914 654.754L191.238 655.785C190.176 657.418 188.582 658.234 186.457 658.234ZM186.188 646.867C185.312 646.867 184.578 647.188 183.984 647.828C183.391 648.461 183.023 649.352 182.883 650.5H189.234V650.336C189.172 649.234 188.875 648.383 188.344 647.781C187.812 647.172 187.094 646.867 186.188 646.867ZM204.961 656.465C205.734 656.465 206.41 656.23 206.988 655.762C207.566 655.293 207.887 654.707 207.949 654.004H210C209.961 654.73 209.711 655.422 209.25 656.078C208.789 656.734 208.172 657.258 207.398 657.648C206.633 658.039 205.82 658.234 204.961 658.234C203.234 658.234 201.859 657.66 200.836 656.512C199.82 655.355 199.312 653.777 199.312 651.777V651.414C199.312 650.18 199.539 649.082 199.992 648.121C200.445 647.16 201.094 646.414 201.938 645.883C202.789 645.352 203.793 645.086 204.949 645.086C206.371 645.086 207.551 645.512 208.488 646.363C209.434 647.215 209.938 648.32 210 649.68H207.949C207.887 648.859 207.574 648.188 207.012 647.664C206.457 647.133 205.77 646.867 204.949 646.867C203.848 646.867 202.992 647.266 202.383 648.062C201.781 648.852 201.48 649.996 201.48 651.496V651.906C201.48 653.367 201.781 654.492 202.383 655.281C202.984 656.07 203.844 656.465 204.961 656.465ZM211.863 651.543C211.863 650.301 212.105 649.184 212.59 648.191C213.082 647.199 213.762 646.434 214.629 645.895C215.504 645.355 216.5 645.086 217.617 645.086C219.344 645.086 220.738 645.684 221.801 646.879C222.871 648.074 223.406 649.664 223.406 651.648V651.801C223.406 653.035 223.168 654.145 222.691 655.129C222.223 656.105 221.547 656.867 220.664 657.414C219.789 657.961 218.781 658.234 217.641 658.234C215.922 658.234 214.527 657.637 213.457 656.441C212.395 655.246 211.863 653.664 211.863 651.695V651.543ZM214.043 651.801C214.043 653.207 214.367 654.336 215.016 655.188C215.672 656.039 216.547 656.465 217.641 656.465C218.742 656.465 219.617 656.035 220.266 655.176C220.914 654.309 221.238 653.098 221.238 651.543C221.238 650.152 220.906 649.027 220.242 648.168C219.586 647.301 218.711 646.867 217.617 646.867C216.547 646.867 215.684 647.293 215.027 648.145C214.371 648.996 214.043 650.215 214.043 651.801ZM228.164 645.32L228.223 646.727C229.152 645.633 230.406 645.086 231.984 645.086C233.758 645.086 234.965 645.766 235.605 647.125C236.027 646.516 236.574 646.023 237.246 645.648C237.926 645.273 238.727 645.086 239.648 645.086C242.43 645.086 243.844 646.559 243.891 649.504V658H241.723V649.633C241.723 648.727 241.516 648.051 241.102 647.605C240.688 647.152 239.992 646.926 239.016 646.926C238.211 646.926 237.543 647.168 237.012 647.652C236.48 648.129 236.172 648.773 236.086 649.586V658H233.906V649.691C233.906 647.848 233.004 646.926 231.199 646.926C229.777 646.926 228.805 647.531 228.281 648.742V658H226.113V645.32H228.164ZM257.883 651.801C257.883 653.73 257.441 655.285 256.559 656.465C255.676 657.645 254.48 658.234 252.973 658.234C251.434 658.234 250.223 657.746 249.34 656.77V662.875H247.172V645.32H249.152L249.258 646.727C250.141 645.633 251.367 645.086 252.938 645.086C254.461 645.086 255.664 645.66 256.547 646.809C257.438 647.957 257.883 649.555 257.883 651.602V651.801ZM255.715 651.555C255.715 650.125 255.41 648.996 254.801 648.168C254.191 647.34 253.355 646.926 252.293 646.926C250.98 646.926 249.996 647.508 249.34 648.672V654.73C249.988 655.887 250.98 656.465 252.316 656.465C253.355 656.465 254.18 656.055 254.789 655.234C255.406 654.406 255.715 653.18 255.715 651.555ZM268.477 658C268.352 657.75 268.25 657.305 268.172 656.664C267.164 657.711 265.961 658.234 264.562 658.234C263.312 658.234 262.285 657.883 261.48 657.18C260.684 656.469 260.285 655.57 260.285 654.484C260.285 653.164 260.785 652.141 261.785 651.414C262.793 650.68 264.207 650.312 266.027 650.312H268.137V649.316C268.137 648.559 267.91 647.957 267.457 647.512C267.004 647.059 266.336 646.832 265.453 646.832C264.68 646.832 264.031 647.027 263.508 647.418C262.984 647.809 262.723 648.281 262.723 648.836H260.543C260.543 648.203 260.766 647.594 261.211 647.008C261.664 646.414 262.273 645.945 263.039 645.602C263.812 645.258 264.66 645.086 265.582 645.086C267.043 645.086 268.188 645.453 269.016 646.188C269.844 646.914 270.273 647.918 270.305 649.199V655.035C270.305 656.199 270.453 657.125 270.75 657.812V658H268.477ZM264.879 656.348C265.559 656.348 266.203 656.172 266.812 655.82C267.422 655.469 267.863 655.012 268.137 654.449V651.848H266.438C263.781 651.848 262.453 652.625 262.453 654.18C262.453 654.859 262.68 655.391 263.133 655.773C263.586 656.156 264.168 656.348 264.879 656.348ZM279.832 647.266C279.504 647.211 279.148 647.184 278.766 647.184C277.344 647.184 276.379 647.789 275.871 649V658H273.703V645.32H275.812L275.848 646.785C276.559 645.652 277.566 645.086 278.871 645.086C279.293 645.086 279.613 645.141 279.832 645.25V647.266ZM285.363 642.25V645.32H287.73V646.996H285.363V654.859C285.363 655.367 285.469 655.75 285.68 656.008C285.891 656.258 286.25 656.383 286.758 656.383C287.008 656.383 287.352 656.336 287.789 656.242V658C287.219 658.156 286.664 658.234 286.125 658.234C285.156 658.234 284.426 657.941 283.934 657.355C283.441 656.77 283.195 655.938 283.195 654.859V646.996H280.887V645.32H283.195V642.25H285.363ZM292.629 658H290.461V645.32H292.629V658ZM290.285 641.957C290.285 641.605 290.391 641.309 290.602 641.066C290.82 640.824 291.141 640.703 291.562 640.703C291.984 640.703 292.305 640.824 292.523 641.066C292.742 641.309 292.852 641.605 292.852 641.957C292.852 642.309 292.742 642.602 292.523 642.836C292.305 643.07 291.984 643.188 291.562 643.188C291.141 643.188 290.82 643.07 290.602 642.836C290.391 642.602 290.285 642.309 290.285 641.957ZM298.465 658H296.297V640H298.465V658ZM304.113 646.855C305.074 645.676 306.324 645.086 307.863 645.086C310.543 645.086 311.895 646.598 311.918 649.621V658H309.75V649.609C309.742 648.695 309.531 648.02 309.117 647.582C308.711 647.145 308.074 646.926 307.207 646.926C306.504 646.926 305.887 647.113 305.355 647.488C304.824 647.863 304.41 648.355 304.113 648.965V658H301.945V640H304.113V646.855ZM320.426 658.234C318.707 658.234 317.309 657.672 316.23 656.547C315.152 655.414 314.613 653.902 314.613 652.012V651.613C314.613 650.355 314.852 649.234 315.328 648.25C315.812 647.258 316.484 646.484 317.344 645.93C318.211 645.367 319.148 645.086 320.156 645.086C321.805 645.086 323.086 645.629 324 646.715C324.914 647.801 325.371 649.355 325.371 651.379V652.281H316.781C316.812 653.531 317.176 654.543 317.871 655.316C318.574 656.082 319.465 656.465 320.543 656.465C321.309 656.465 321.957 656.309 322.488 655.996C323.02 655.684 323.484 655.27 323.883 654.754L325.207 655.785C324.145 657.418 322.551 658.234 320.426 658.234ZM320.156 646.867C319.281 646.867 318.547 647.188 317.953 647.828C317.359 648.461 316.992 649.352 316.852 650.5H323.203V650.336C323.141 649.234 322.844 648.383 322.312 647.781C321.781 647.172 321.062 646.867 320.156 646.867ZM338.93 656.465C339.703 656.465 340.379 656.23 340.957 655.762C341.535 655.293 341.855 654.707 341.918 654.004H343.969C343.93 654.73 343.68 655.422 343.219 656.078C342.758 656.734 342.141 657.258 341.367 657.648C340.602 658.039 339.789 658.234 338.93 658.234C337.203 658.234 335.828 657.66 334.805 656.512C333.789 655.355 333.281 653.777 333.281 651.777V651.414C333.281 650.18 333.508 649.082 333.961 648.121C334.414 647.16 335.062 646.414 335.906 645.883C336.758 645.352 337.762 645.086 338.918 645.086C340.34 645.086 341.52 645.512 342.457 646.363C343.402 647.215 343.906 648.32 343.969 649.68H341.918C341.855 648.859 341.543 648.188 340.98 647.664C340.426 647.133 339.738 646.867 338.918 646.867C337.816 646.867 336.961 647.266 336.352 648.062C335.75 648.852 335.449 649.996 335.449 651.496V651.906C335.449 653.367 335.75 654.492 336.352 655.281C336.953 656.07 337.812 656.465 338.93 656.465ZM345.832 651.543C345.832 650.301 346.074 649.184 346.559 648.191C347.051 647.199 347.73 646.434 348.598 645.895C349.473 645.355 350.469 645.086 351.586 645.086C353.312 645.086 354.707 645.684 355.77 646.879C356.84 648.074 357.375 649.664 357.375 651.648V651.801C357.375 653.035 357.137 654.145 356.66 655.129C356.191 656.105 355.516 656.867 354.633 657.414C353.758 657.961 352.75 658.234 351.609 658.234C349.891 658.234 348.496 657.637 347.426 656.441C346.363 655.246 345.832 653.664 345.832 651.695V651.543ZM348.012 651.801C348.012 653.207 348.336 654.336 348.984 655.188C349.641 656.039 350.516 656.465 351.609 656.465C352.711 656.465 353.586 656.035 354.234 655.176C354.883 654.309 355.207 653.098 355.207 651.543C355.207 650.152 354.875 649.027 354.211 648.168C353.555 647.301 352.68 646.867 351.586 646.867C350.516 646.867 349.652 647.293 348.996 648.145C348.34 648.996 348.012 650.215 348.012 651.801ZM362.145 645.32L362.215 646.914C363.184 645.695 364.449 645.086 366.012 645.086C368.691 645.086 370.043 646.598 370.066 649.621V658H367.898V649.609C367.891 648.695 367.68 648.02 367.266 647.582C366.859 647.145 366.223 646.926 365.355 646.926C364.652 646.926 364.035 647.113 363.504 647.488C362.973 647.863 362.559 648.355 362.262 648.965V658H360.094V645.32H362.145ZM375.504 646.855C376.465 645.676 377.715 645.086 379.254 645.086C381.934 645.086 383.285 646.598 383.309 649.621V658H381.141V649.609C381.133 648.695 380.922 648.02 380.508 647.582C380.102 647.145 379.465 646.926 378.598 646.926C377.895 646.926 377.277 647.113 376.746 647.488C376.215 647.863 375.801 648.355 375.504 648.965V658H373.336V640H375.504V646.855ZM391.816 658.234C390.098 658.234 388.699 657.672 387.621 656.547C386.543 655.414 386.004 653.902 386.004 652.012V651.613C386.004 650.355 386.242 649.234 386.719 648.25C387.203 647.258 387.875 646.484 388.734 645.93C389.602 645.367 390.539 645.086 391.547 645.086C393.195 645.086 394.477 645.629 395.391 646.715C396.305 647.801 396.762 649.355 396.762 651.379V652.281H388.172C388.203 653.531 388.566 654.543 389.262 655.316C389.965 656.082 390.855 656.465 391.934 656.465C392.699 656.465 393.348 656.309 393.879 655.996C394.41 655.684 394.875 655.27 395.273 654.754L396.598 655.785C395.535 657.418 393.941 658.234 391.816 658.234ZM391.547 646.867C390.672 646.867 389.938 647.188 389.344 647.828C388.75 648.461 388.383 649.352 388.242 650.5H394.594V650.336C394.531 649.234 394.234 648.383 393.703 647.781C393.172 647.172 392.453 646.867 391.547 646.867ZM404.367 656.465C405.141 656.465 405.816 656.23 406.395 655.762C406.973 655.293 407.293 654.707 407.355 654.004H409.406C409.367 654.73 409.117 655.422 408.656 656.078C408.195 656.734 407.578 657.258 406.805 657.648C406.039 658.039 405.227 658.234 404.367 658.234C402.641 658.234 401.266 657.66 400.242 656.512C399.227 655.355 398.719 653.777 398.719 651.777V651.414C398.719 650.18 398.945 649.082 399.398 648.121C399.852 647.16 400.5 646.414 401.344 645.883C402.195 645.352 403.199 645.086 404.355 645.086C405.777 645.086 406.957 645.512 407.895 646.363C408.84 647.215 409.344 648.32 409.406 649.68H407.355C407.293 648.859 406.98 648.188 406.418 647.664C405.863 647.133 405.176 646.867 404.355 646.867C403.254 646.867 402.398 647.266 401.789 648.062C401.188 648.852 400.887 649.996 400.887 651.496V651.906C400.887 653.367 401.188 654.492 401.789 655.281C402.391 656.07 403.25 656.465 404.367 656.465ZM414.199 658H412.031V645.32H414.199V658ZM411.855 641.957C411.855 641.605 411.961 641.309 412.172 641.066C412.391 640.824 412.711 640.703 413.133 640.703C413.555 640.703 413.875 640.824 414.094 641.066C414.312 641.309 414.422 641.605 414.422 641.957C414.422 642.309 414.312 642.602 414.094 642.836C413.875 643.07 413.555 643.188 413.133 643.188C412.711 643.188 412.391 643.07 412.172 642.836C411.961 642.602 411.855 642.309 411.855 641.957ZM419.719 645.32L419.777 646.727C420.707 645.633 421.961 645.086 423.539 645.086C425.312 645.086 426.52 645.766 427.16 647.125C427.582 646.516 428.129 646.023 428.801 645.648C429.48 645.273 430.281 645.086 431.203 645.086C433.984 645.086 435.398 646.559 435.445 649.504V658H433.277V649.633C433.277 648.727 433.07 648.051 432.656 647.605C432.242 647.152 431.547 646.926 430.57 646.926C429.766 646.926 429.098 647.168 428.566 647.652C428.035 648.129 427.727 648.773 427.641 649.586V658H425.461V649.691C425.461 647.848 424.559 646.926 422.754 646.926C421.332 646.926 420.359 647.531 419.836 648.742V658H417.668V645.32H419.719ZM443.988 658.234C442.27 658.234 440.871 657.672 439.793 656.547C438.715 655.414 438.176 653.902 438.176 652.012V651.613C438.176 650.355 438.414 649.234 438.891 648.25C439.375 647.258 440.047 646.484 440.906 645.93C441.773 645.367 442.711 645.086 443.719 645.086C445.367 645.086 446.648 645.629 447.562 646.715C448.477 647.801 448.934 649.355 448.934 651.379V652.281H440.344C440.375 653.531 440.738 654.543 441.434 655.316C442.137 656.082 443.027 656.465 444.105 656.465C444.871 656.465 445.52 656.309 446.051 655.996C446.582 655.684 447.047 655.27 447.445 654.754L448.77 655.785C447.707 657.418 446.113 658.234 443.988 658.234ZM443.719 646.867C442.844 646.867 442.109 647.188 441.516 647.828C440.922 648.461 440.555 649.352 440.414 650.5H446.766V650.336C446.703 649.234 446.406 648.383 445.875 647.781C445.344 647.172 444.625 646.867 443.719 646.867ZM453.504 645.32L453.574 646.914C454.543 645.695 455.809 645.086 457.371 645.086C460.051 645.086 461.402 646.598 461.426 649.621V658H459.258V649.609C459.25 648.695 459.039 648.02 458.625 647.582C458.219 647.145 457.582 646.926 456.715 646.926C456.012 646.926 455.395 647.113 454.863 647.488C454.332 647.863 453.918 648.355 453.621 648.965V658H451.453V645.32H453.504ZM467.637 642.25V645.32H470.004V646.996H467.637V654.859C467.637 655.367 467.742 655.75 467.953 656.008C468.164 656.258 468.523 656.383 469.031 656.383C469.281 656.383 469.625 656.336 470.062 656.242V658C469.492 658.156 468.938 658.234 468.398 658.234C467.43 658.234 466.699 657.941 466.207 657.355C465.715 656.77 465.469 655.938 465.469 654.859V646.996H463.16V645.32H465.469V642.25H467.637ZM471.738 651.543C471.738 650.301 471.98 649.184 472.465 648.191C472.957 647.199 473.637 646.434 474.504 645.895C475.379 645.355 476.375 645.086 477.492 645.086C479.219 645.086 480.613 645.684 481.676 646.879C482.746 648.074 483.281 649.664 483.281 651.648V651.801C483.281 653.035 483.043 654.145 482.566 655.129C482.098 656.105 481.422 656.867 480.539 657.414C479.664 657.961 478.656 658.234 477.516 658.234C475.797 658.234 474.402 657.637 473.332 656.441C472.27 655.246 471.738 653.664 471.738 651.695V651.543ZM473.918 651.801C473.918 653.207 474.242 654.336 474.891 655.188C475.547 656.039 476.422 656.465 477.516 656.465C478.617 656.465 479.492 656.035 480.141 655.176C480.789 654.309 481.113 653.098 481.113 651.543C481.113 650.152 480.781 649.027 480.117 648.168C479.461 647.301 478.586 646.867 477.492 646.867C476.422 646.867 475.559 647.293 474.902 648.145C474.246 648.996 473.918 650.215 473.918 651.801ZM90.7266 688.465C91.5 688.465 92.1758 688.23 92.7539 687.762C93.332 687.293 93.6523 686.707 93.7148 686.004H95.7656C95.7266 686.73 95.4766 687.422 95.0156 688.078C94.5547 688.734 93.9375 689.258 93.1641 689.648C92.3984 690.039 91.5859 690.234 90.7266 690.234C89 690.234 87.625 689.66 86.6016 688.512C85.5859 687.355 85.0781 685.777 85.0781 683.777V683.414C85.0781 682.18 85.3047 681.082 85.7578 680.121C86.2109 679.16 86.8594 678.414 87.7031 677.883C88.5547 677.352 89.5586 677.086 90.7148 677.086C92.1367 677.086 93.3164 677.512 94.2539 678.363C95.1992 679.215 95.7031 680.32 95.7656 681.68H93.7148C93.6523 680.859 93.3398 680.188 92.7773 679.664C92.2227 679.133 91.5352 678.867 90.7148 678.867C89.6133 678.867 88.7578 679.266 88.1484 680.062C87.5469 680.852 87.2461 681.996 87.2461 683.496V683.906C87.2461 685.367 87.5469 686.492 88.1484 687.281C88.75 688.07 89.6094 688.465 90.7266 688.465ZM97.6289 683.543C97.6289 682.301 97.8711 681.184 98.3555 680.191C98.8477 679.199 99.5273 678.434 100.395 677.895C101.27 677.355 102.266 677.086 103.383 677.086C105.109 677.086 106.504 677.684 107.566 678.879C108.637 680.074 109.172 681.664 109.172 683.648V683.801C109.172 685.035 108.934 686.145 108.457 687.129C107.988 688.105 107.312 688.867 106.43 689.414C105.555 689.961 104.547 690.234 103.406 690.234C101.688 690.234 100.293 689.637 99.2227 688.441C98.1602 687.246 97.6289 685.664 97.6289 683.695V683.543ZM99.8086 683.801C99.8086 685.207 100.133 686.336 100.781 687.188C101.438 688.039 102.312 688.465 103.406 688.465C104.508 688.465 105.383 688.035 106.031 687.176C106.68 686.309 107.004 685.098 107.004 683.543C107.004 682.152 106.672 681.027 106.008 680.168C105.352 679.301 104.477 678.867 103.383 678.867C102.312 678.867 101.449 679.293 100.793 680.145C100.137 680.996 99.8086 682.215 99.8086 683.801ZM113.93 677.32L113.988 678.727C114.918 677.633 116.172 677.086 117.75 677.086C119.523 677.086 120.73 677.766 121.371 679.125C121.793 678.516 122.34 678.023 123.012 677.648C123.691 677.273 124.492 677.086 125.414 677.086C128.195 677.086 129.609 678.559 129.656 681.504V690H127.488V681.633C127.488 680.727 127.281 680.051 126.867 679.605C126.453 679.152 125.758 678.926 124.781 678.926C123.977 678.926 123.309 679.168 122.777 679.652C122.246 680.129 121.938 680.773 121.852 681.586V690H119.672V681.691C119.672 679.848 118.77 678.926 116.965 678.926C115.543 678.926 114.57 679.531 114.047 680.742V690H111.879V677.32H113.93ZM138.316 683.543C138.316 682.301 138.559 681.184 139.043 680.191C139.535 679.199 140.215 678.434 141.082 677.895C141.957 677.355 142.953 677.086 144.07 677.086C145.797 677.086 147.191 677.684 148.254 678.879C149.324 680.074 149.859 681.664 149.859 683.648V683.801C149.859 685.035 149.621 686.145 149.145 687.129C148.676 688.105 148 688.867 147.117 689.414C146.242 689.961 145.234 690.234 144.094 690.234C142.375 690.234 140.98 689.637 139.91 688.441C138.848 687.246 138.316 685.664 138.316 683.695V683.543ZM140.496 683.801C140.496 685.207 140.82 686.336 141.469 687.188C142.125 688.039 143 688.465 144.094 688.465C145.195 688.465 146.07 688.035 146.719 687.176C147.367 686.309 147.691 685.098 147.691 683.543C147.691 682.152 147.359 681.027 146.695 680.168C146.039 679.301 145.164 678.867 144.07 678.867C143 678.867 142.137 679.293 141.48 680.145C140.824 680.996 140.496 682.215 140.496 683.801ZM160.406 688.746C159.562 689.738 158.324 690.234 156.691 690.234C155.34 690.234 154.309 689.844 153.598 689.062C152.895 688.273 152.539 687.109 152.531 685.57V677.32H154.699V685.512C154.699 687.434 155.48 688.395 157.043 688.395C158.699 688.395 159.801 687.777 160.348 686.543V677.32H162.516V690H160.453L160.406 688.746ZM168.762 674.25V677.32H171.129V678.996H168.762V686.859C168.762 687.367 168.867 687.75 169.078 688.008C169.289 688.258 169.648 688.383 170.156 688.383C170.406 688.383 170.75 688.336 171.188 688.242V690C170.617 690.156 170.062 690.234 169.523 690.234C168.555 690.234 167.824 689.941 167.332 689.355C166.84 688.77 166.594 687.938 166.594 686.859V678.996H164.285V677.32H166.594V674.25H168.762ZM179.801 679.266C179.473 679.211 179.117 679.184 178.734 679.184C177.312 679.184 176.348 679.789 175.84 681V690H173.672V677.32H175.781L175.816 678.785C176.527 677.652 177.535 677.086 178.84 677.086C179.262 677.086 179.582 677.141 179.801 677.25V679.266ZM189.164 690C189.039 689.75 188.938 689.305 188.859 688.664C187.852 689.711 186.648 690.234 185.25 690.234C184 690.234 182.973 689.883 182.168 689.18C181.371 688.469 180.973 687.57 180.973 686.484C180.973 685.164 181.473 684.141 182.473 683.414C183.48 682.68 184.895 682.312 186.715 682.312H188.824V681.316C188.824 680.559 188.598 679.957 188.145 679.512C187.691 679.059 187.023 678.832 186.141 678.832C185.367 678.832 184.719 679.027 184.195 679.418C183.672 679.809 183.41 680.281 183.41 680.836H181.23C181.23 680.203 181.453 679.594 181.898 679.008C182.352 678.414 182.961 677.945 183.727 677.602C184.5 677.258 185.348 677.086 186.27 677.086C187.73 677.086 188.875 677.453 189.703 678.188C190.531 678.914 190.961 679.918 190.992 681.199V687.035C190.992 688.199 191.141 689.125 191.438 689.812V690H189.164ZM185.566 688.348C186.246 688.348 186.891 688.172 187.5 687.82C188.109 687.469 188.551 687.012 188.824 686.449V683.848H187.125C184.469 683.848 183.141 684.625 183.141 686.18C183.141 686.859 183.367 687.391 183.82 687.773C184.273 688.156 184.855 688.348 185.566 688.348ZM201.773 686.637C201.773 686.051 201.551 685.598 201.105 685.277C200.668 684.949 199.898 684.668 198.797 684.434C197.703 684.199 196.832 683.918 196.184 683.59C195.543 683.262 195.066 682.871 194.754 682.418C194.449 681.965 194.297 681.426 194.297 680.801C194.297 679.762 194.734 678.883 195.609 678.164C196.492 677.445 197.617 677.086 198.984 677.086C200.422 677.086 201.586 677.457 202.477 678.199C203.375 678.941 203.824 679.891 203.824 681.047H201.645C201.645 680.453 201.391 679.941 200.883 679.512C200.383 679.082 199.75 678.867 198.984 678.867C198.195 678.867 197.578 679.039 197.133 679.383C196.688 679.727 196.465 680.176 196.465 680.73C196.465 681.254 196.672 681.648 197.086 681.914C197.5 682.18 198.246 682.434 199.324 682.676C200.41 682.918 201.289 683.207 201.961 683.543C202.633 683.879 203.129 684.285 203.449 684.762C203.777 685.23 203.941 685.805 203.941 686.484C203.941 687.617 203.488 688.527 202.582 689.215C201.676 689.895 200.5 690.234 199.055 690.234C198.039 690.234 197.141 690.055 196.359 689.695C195.578 689.336 194.965 688.836 194.52 688.195C194.082 687.547 193.863 686.848 193.863 686.098H196.031C196.07 686.824 196.359 687.402 196.898 687.832C197.445 688.254 198.164 688.465 199.055 688.465C199.875 688.465 200.531 688.301 201.023 687.973C201.523 687.637 201.773 687.191 201.773 686.637ZM223.43 683.801C223.43 685.73 222.988 687.285 222.105 688.465C221.223 689.645 220.027 690.234 218.52 690.234C216.98 690.234 215.77 689.746 214.887 688.77V694.875H212.719V677.32H214.699L214.805 678.727C215.688 677.633 216.914 677.086 218.484 677.086C220.008 677.086 221.211 677.66 222.094 678.809C222.984 679.957 223.43 681.555 223.43 683.602V683.801ZM221.262 683.555C221.262 682.125 220.957 680.996 220.348 680.168C219.738 679.34 218.902 678.926 217.84 678.926C216.527 678.926 215.543 679.508 214.887 680.672V686.73C215.535 687.887 216.527 688.465 217.863 688.465C218.902 688.465 219.727 688.055 220.336 687.234C220.953 686.406 221.262 685.18 221.262 683.555ZM231.457 690.234C229.738 690.234 228.34 689.672 227.262 688.547C226.184 687.414 225.645 685.902 225.645 684.012V683.613C225.645 682.355 225.883 681.234 226.359 680.25C226.844 679.258 227.516 678.484 228.375 677.93C229.242 677.367 230.18 677.086 231.188 677.086C232.836 677.086 234.117 677.629 235.031 678.715C235.945 679.801 236.402 681.355 236.402 683.379V684.281H227.812C227.844 685.531 228.207 686.543 228.902 687.316C229.605 688.082 230.496 688.465 231.574 688.465C232.34 688.465 232.988 688.309 233.52 687.996C234.051 687.684 234.516 687.27 234.914 686.754L236.238 687.785C235.176 689.418 233.582 690.234 231.457 690.234ZM231.188 678.867C230.312 678.867 229.578 679.188 228.984 679.828C228.391 680.461 228.023 681.352 227.883 682.5H234.234V682.336C234.172 681.234 233.875 680.383 233.344 679.781C232.812 679.172 232.094 678.867 231.188 678.867ZM246.305 686.637C246.305 686.051 246.082 685.598 245.637 685.277C245.199 684.949 244.43 684.668 243.328 684.434C242.234 684.199 241.363 683.918 240.715 683.59C240.074 683.262 239.598 682.871 239.285 682.418C238.98 681.965 238.828 681.426 238.828 680.801C238.828 679.762 239.266 678.883 240.141 678.164C241.023 677.445 242.148 677.086 243.516 677.086C244.953 677.086 246.117 677.457 247.008 678.199C247.906 678.941 248.355 679.891 248.355 681.047H246.176C246.176 680.453 245.922 679.941 245.414 679.512C244.914 679.082 244.281 678.867 243.516 678.867C242.727 678.867 242.109 679.039 241.664 679.383C241.219 679.727 240.996 680.176 240.996 680.73C240.996 681.254 241.203 681.648 241.617 681.914C242.031 682.18 242.777 682.434 243.855 682.676C244.941 682.918 245.82 683.207 246.492 683.543C247.164 683.879 247.66 684.285 247.98 684.762C248.309 685.23 248.473 685.805 248.473 686.484C248.473 687.617 248.02 688.527 247.113 689.215C246.207 689.895 245.031 690.234 243.586 690.234C242.57 690.234 241.672 690.055 240.891 689.695C240.109 689.336 239.496 688.836 239.051 688.195C238.613 687.547 238.395 686.848 238.395 686.098H240.562C240.602 686.824 240.891 687.402 241.43 687.832C241.977 688.254 242.695 688.465 243.586 688.465C244.406 688.465 245.062 688.301 245.555 687.973C246.055 687.637 246.305 687.191 246.305 686.637ZM258.68 686.637C258.68 686.051 258.457 685.598 258.012 685.277C257.574 684.949 256.805 684.668 255.703 684.434C254.609 684.199 253.738 683.918 253.09 683.59C252.449 683.262 251.973 682.871 251.66 682.418C251.355 681.965 251.203 681.426 251.203 680.801C251.203 679.762 251.641 678.883 252.516 678.164C253.398 677.445 254.523 677.086 255.891 677.086C257.328 677.086 258.492 677.457 259.383 678.199C260.281 678.941 260.73 679.891 260.73 681.047H258.551C258.551 680.453 258.297 679.941 257.789 679.512C257.289 679.082 256.656 678.867 255.891 678.867C255.102 678.867 254.484 679.039 254.039 679.383C253.594 679.727 253.371 680.176 253.371 680.73C253.371 681.254 253.578 681.648 253.992 681.914C254.406 682.18 255.152 682.434 256.23 682.676C257.316 682.918 258.195 683.207 258.867 683.543C259.539 683.879 260.035 684.285 260.355 684.762C260.684 685.23 260.848 685.805 260.848 686.484C260.848 687.617 260.395 688.527 259.488 689.215C258.582 689.895 257.406 690.234 255.961 690.234C254.945 690.234 254.047 690.055 253.266 689.695C252.484 689.336 251.871 688.836 251.426 688.195C250.988 687.547 250.77 686.848 250.77 686.098H252.938C252.977 686.824 253.266 687.402 253.805 687.832C254.352 688.254 255.07 688.465 255.961 688.465C256.781 688.465 257.438 688.301 257.93 687.973C258.43 687.637 258.68 687.191 258.68 686.637ZM263.098 683.543C263.098 682.301 263.34 681.184 263.824 680.191C264.316 679.199 264.996 678.434 265.863 677.895C266.738 677.355 267.734 677.086 268.852 677.086C270.578 677.086 271.973 677.684 273.035 678.879C274.105 680.074 274.641 681.664 274.641 683.648V683.801C274.641 685.035 274.402 686.145 273.926 687.129C273.457 688.105 272.781 688.867 271.898 689.414C271.023 689.961 270.016 690.234 268.875 690.234C267.156 690.234 265.762 689.637 264.691 688.441C263.629 687.246 263.098 685.664 263.098 683.695V683.543ZM265.277 683.801C265.277 685.207 265.602 686.336 266.25 687.188C266.906 688.039 267.781 688.465 268.875 688.465C269.977 688.465 270.852 688.035 271.5 687.176C272.148 686.309 272.473 685.098 272.473 683.543C272.473 682.152 272.141 681.027 271.477 680.168C270.82 679.301 269.945 678.867 268.852 678.867C267.781 678.867 266.918 679.293 266.262 680.145C265.605 680.996 265.277 682.215 265.277 683.801ZM285.188 690C285.062 689.75 284.961 689.305 284.883 688.664C283.875 689.711 282.672 690.234 281.273 690.234C280.023 690.234 278.996 689.883 278.191 689.18C277.395 688.469 276.996 687.57 276.996 686.484C276.996 685.164 277.496 684.141 278.496 683.414C279.504 682.68 280.918 682.312 282.738 682.312H284.848V681.316C284.848 680.559 284.621 679.957 284.168 679.512C283.715 679.059 283.047 678.832 282.164 678.832C281.391 678.832 280.742 679.027 280.219 679.418C279.695 679.809 279.434 680.281 279.434 680.836H277.254C277.254 680.203 277.477 679.594 277.922 679.008C278.375 678.414 278.984 677.945 279.75 677.602C280.523 677.258 281.371 677.086 282.293 677.086C283.754 677.086 284.898 677.453 285.727 678.188C286.555 678.914 286.984 679.918 287.016 681.199V687.035C287.016 688.199 287.164 689.125 287.461 689.812V690H285.188ZM281.59 688.348C282.27 688.348 282.914 688.172 283.523 687.82C284.133 687.469 284.574 687.012 284.848 686.449V683.848H283.148C280.492 683.848 279.164 684.625 279.164 686.18C279.164 686.859 279.391 687.391 279.844 687.773C280.297 688.156 280.879 688.348 281.59 688.348ZM297.797 686.637C297.797 686.051 297.574 685.598 297.129 685.277C296.691 684.949 295.922 684.668 294.82 684.434C293.727 684.199 292.855 683.918 292.207 683.59C291.566 683.262 291.09 682.871 290.777 682.418C290.473 681.965 290.32 681.426 290.32 680.801C290.32 679.762 290.758 678.883 291.633 678.164C292.516 677.445 293.641 677.086 295.008 677.086C296.445 677.086 297.609 677.457 298.5 678.199C299.398 678.941 299.848 679.891 299.848 681.047H297.668C297.668 680.453 297.414 679.941 296.906 679.512C296.406 679.082 295.773 678.867 295.008 678.867C294.219 678.867 293.602 679.039 293.156 679.383C292.711 679.727 292.488 680.176 292.488 680.73C292.488 681.254 292.695 681.648 293.109 681.914C293.523 682.18 294.27 682.434 295.348 682.676C296.434 682.918 297.312 683.207 297.984 683.543C298.656 683.879 299.152 684.285 299.473 684.762C299.801 685.23 299.965 685.805 299.965 686.484C299.965 687.617 299.512 688.527 298.605 689.215C297.699 689.895 296.523 690.234 295.078 690.234C294.062 690.234 293.164 690.055 292.383 689.695C291.602 689.336 290.988 688.836 290.543 688.195C290.105 687.547 289.887 686.848 289.887 686.098H292.055C292.094 686.824 292.383 687.402 292.922 687.832C293.469 688.254 294.188 688.465 295.078 688.465C295.898 688.465 296.555 688.301 297.047 687.973C297.547 687.637 297.797 687.191 297.797 686.637Z" fill="#F8F8F8"/>
<defs>
<linearGradient id="paint0_linear" x1="117.618" y1="220.776" x2="228.84" y2="301.888" gradientUnits="userSpaceOnUse">
<stop stop-color="white"/>
<stop offset="1" stop-color="white" stop-opacity="0"/>
</linearGradient>
<linearGradient id="paint1_linear" x1="174.288" y1="142.891" x2="285.51" y2="224.003" gradientUnits="userSpaceOnUse">
<stop stop-color="white"/>
<stop offset="1" stop-color="white" stop-opacity="0"/>
</linearGradient>
<linearGradient id="paint2_linear" x1="100.023" y1="206.489" x2="211.245" y2="287.601" gradientUnits="userSpaceOnUse">
<stop stop-color="white"/>
<stop offset="1" stop-color="white" stop-opacity="0"/>
</linearGradient>
<linearGradient id="paint3_linear" x1="156.693" y1="128.603" x2="267.915" y2="209.714" gradientUnits="userSpaceOnUse">
<stop stop-color="white"/>
<stop offset="1" stop-color="white" stop-opacity="0"/>
</linearGradient>
<linearGradient id="paint4_linear" x1="153.271" y1="349.769" x2="170.727" y2="380.005" gradientUnits="userSpaceOnUse">
<stop stop-color="white"/>
<stop offset="1" stop-color="white" stop-opacity="0"/>
</linearGradient>
<linearGradient id="paint5_linear" x1="310.423" y1="303.183" x2="327.88" y2="333.419" gradientUnits="userSpaceOnUse">
<stop stop-color="white"/>
<stop offset="1" stop-color="white" stop-opacity="0"/>
</linearGradient>
<linearGradient id="paint6_linear" x1="167.661" y1="367.547" x2="148.699" y2="521.299" gradientUnits="userSpaceOnUse">
<stop stop-color="white"/>
<stop offset="1" stop-color="white" stop-opacity="0"/>
</linearGradient>
<linearGradient id="paint7_linear" x1="282.387" y1="356.403" x2="358.093" y2="415.664" gradientUnits="userSpaceOnUse">
<stop stop-color="white"/>
<stop offset="1" stop-color="white" stop-opacity="0"/>
</linearGradient>
<linearGradient id="paint8_linear" x1="326.889" y1="451.562" x2="349.686" y2="469.549" gradientUnits="userSpaceOnUse">
<stop stop-color="white"/>
<stop offset="1" stop-color="white" stop-opacity="0"/>
</linearGradient>
<linearGradient id="paint9_linear" x1="138.215" y1="288.456" x2="160.298" y2="300.763" gradientUnits="userSpaceOnUse">
<stop stop-color="white"/>
<stop offset="1" stop-color="white" stop-opacity="0"/>
</linearGradient>
</defs>
</svg>
