<svg width="40" height="40" viewBox="0 0 40 40" fill="none" xmlns="http://www.w3.org/2000/svg">
<circle cx="20" cy="20" r="20" fill="#835AFD"/>
<path d="M26.1536 26.923V25.3845C26.1536 24.5685 25.8295 23.7859 25.2524 23.2088C24.6754 22.6318 23.8928 22.3076 23.0767 22.3076H16.9229C16.1068 22.3076 15.3242 22.6318 14.7472 23.2088C14.1701 23.7859 13.8459 24.5685 13.8459 25.3845V26.923" stroke="#F8F8F8" stroke-width="1.5" stroke-linecap="round" stroke-linejoin="round"/>
<path d="M19.9998 19.2308C21.6992 19.2308 23.0768 17.8532 23.0768 16.1538C23.0768 14.4545 21.6992 13.0769 19.9998 13.0769C18.3005 13.0769 16.9229 14.4545 16.9229 16.1538C16.9229 17.8532 18.3005 19.2308 19.9998 19.2308Z" stroke="#F8F8F8" stroke-width="1.5" stroke-linecap="round" stroke-linejoin="round"/>
</svg>
